
<svg xmlns="http://www.w3.org/2000/svg"
 width="750.000000pt" height="750.000000pt" viewBox="0 0 750.000000 750.000000"
 preserveAspectRatio="xMidYMid meet">

<g transform="translate(0.000000,750.000000) scale(0.100000,-0.100000)"
fill="#C4BAA6" stroke="none">
<path d="M909 6403 c-13 -16 -12 -17 4 -4 16 13 21 21 13 21 -2 0 -10 -8 -17
-17z"/>
<path d="M852 6347 c-6 -7 -12 -26 -14 -42 -3 -27 0 -30 27 -33 26 -2 31 1 32
20 3 59 -19 87 -45 55z"/>
<path d="M1052 6310 c0 -14 2 -19 5 -12 2 6 2 18 0 25 -3 6 -5 1 -5 -13z"/>
<path d="M1063 6225 c0 -27 2 -38 4 -22 2 15 2 37 0 50 -2 12 -4 0 -4 -28z"/>
<path d="M1164 6214 c-19 -15 -19 -15 1 -6 11 5 27 12 35 15 13 5 13 6 -1 6
-8 1 -24 -6 -35 -15z"/>
<path d="M873 6213 c9 -2 25 -2 35 0 9 3 1 5 -18 5 -19 0 -27 -2 -17 -5z"/>
<path d="M1270 6216 c0 -2 8 -10 18 -17 15 -13 16 -12 3 4 -13 16 -21 21 -21
13z"/>
<path d="M984 6157 c20 -27 36 -56 37 -65 0 -10 3 -12 5 -5 7 16 -19 63 -51
93 -23 20 -21 16 9 -23z"/>
<path d="M1101 6165 c-17 -20 -31 -41 -32 -48 -1 -7 -5 -1 -9 13 -7 21 -8 19
-9 -17 -1 -23 -5 -43 -9 -45 -5 -1 -11 -37 -14 -78 l-6 -75 18 70 c23 88 55
163 82 193 12 12 19 22 16 22 -3 0 -20 -16 -37 -35z"/>
<path d="M677 6178 c-23 -18 -43 -72 -23 -65 7 3 18 1 24 -5 7 -7 15 -2 27 15
13 20 14 30 5 46 -13 25 -12 24 -33 9z"/>
<path d="M811 6188 c2 -2 20 -16 39 -33 l35 -30 -29 33 c-17 17 -34 32 -40 32
-5 0 -7 -1 -5 -2z"/>
<path d="M793 6158 c-15 -20 -25 -38 -20 -38 3 0 12 11 21 25 17 26 16 35 -1
13z"/>
<path d="M1265 6105 c-38 -37 -43 -48 -20 -39 10 4 15 0 15 -11 0 -9 5 -13 10
-10 6 4 17 2 25 -5 8 -7 15 -7 19 -1 4 6 13 8 20 5 20 -8 25 26 10 57 -21 42
-41 43 -79 4z"/>
<path d="M752 6103 c-7 -3 -21 -22 -32 -43 -11 -22 -28 -44 -37 -49 -13 -7
-14 -10 -4 -11 8 0 19 -8 26 -17 11 -15 15 -15 30 -3 15 12 18 12 26 -3 12
-21 29 -22 29 -1 0 11 6 14 21 9 21 -7 22 -5 15 36 -9 58 -41 93 -74 82z"/>
<path d="M902 5940 c0 -14 2 -19 5 -12 2 6 2 18 0 25 -3 6 -5 1 -5 -13z"/>
<path d="M993 5860 l-22 -51 -28 17 -28 16 23 -19 23 -19 -47 -87 c-25 -49
-45 -90 -43 -92 2 -2 24 34 48 81 38 71 46 82 59 71 13 -10 14 -9 5 7 -8 14
-5 28 14 62 14 24 23 49 21 55 -2 6 -13 -13 -25 -41z"/>
<path d="M881 5844 c0 -11 3 -14 6 -6 3 7 2 16 -1 19 -3 4 -6 -2 -5 -13z"/>
<path d="M810 5840 c0 -13 11 -13 30 0 12 8 11 10 -7 10 -13 0 -23 -4 -23 -10z"/>
<path d="M728 5799 c-18 -18 -26 -26 -16 -20 10 8 17 8 20 2 1 -6 11 3 20 19
22 38 16 38 -24 -1z"/>
<path d="M787 5795 c-9 -23 3 -45 25 -45 15 0 19 6 16 27 -3 31 -32 43 -41 18z"/>
<path d="M1099 5733 c-13 -15 -12 -15 8 -5 19 10 24 9 37 -10 39 -56 7 -106
-122 -191 -54 -37 -105 -73 -112 -82 -7 -8 -19 -15 -27 -15 -17 0 -72 -114
-75 -155 -1 -16 -5 2 -8 40 -6 56 -7 47 -5 -46 l2 -117 57 -108 c56 -106 86
-155 86 -142 0 4 -23 51 -50 105 -62 119 -79 198 -62 279 16 76 45 119 115
170 64 48 82 51 49 9 -62 -79 -76 -284 -33 -485 30 -139 37 -289 18 -352 -18
-56 -14 -61 10 -15 27 48 22 198 -10 380 -15 81 -27 181 -27 221 0 88 28 186
68 242 31 43 107 89 164 99 l36 7 -5 -40 c-3 -23 -2 -58 2 -79 l8 -38 8 40 c4
22 8 57 8 78 1 20 4 37 7 37 20 0 101 -73 135 -122 63 -94 63 -158 -2 -158
-45 0 -31 -23 21 -34 37 -8 45 -7 56 9 8 10 14 29 14 42 l0 23 33 -20 c33 -20
110 -27 134 -12 17 11 0 73 -26 96 -10 9 -41 20 -68 25 -42 6 -113 42 -113 56
0 7 60 -17 66 -26 3 -5 25 -9 49 -9 35 0 48 5 64 26 26 34 26 46 -1 94 -23 40
-48 53 -48 25 0 -9 6 -12 15 -9 16 7 19 -4 7 -23 -11 -18 -77 -43 -111 -43
-22 0 -32 6 -37 22 l-7 23 -8 -23 c-12 -31 -23 -28 -98 21 -59 38 -71 42 -127
42 l-62 0 24 28 c32 38 33 99 2 121 -29 20 -42 20 -59 -1z"/>
<path d="M700 5721 c-19 -36 12 -74 53 -63 14 4 17 13 15 41 -3 31 -7 36 -30
39 -19 2 -30 -3 -38 -17z"/>
<path d="M836 5705 c-9 -26 -7 -32 5 -12 6 10 9 21 6 23 -2 3 -7 -2 -11 -11z"/>
<path d="M672 5690 c0 -14 2 -19 5 -12 2 6 2 18 0 25 -3 6 -5 1 -5 -13z"/>
<path d="M991 5644 c0 -11 3 -14 6 -6 3 7 2 16 -1 19 -3 4 -6 -2 -5 -13z"/>
<path d="M646 5624 c-9 -8 -16 -27 -16 -40 0 -14 -5 -35 -11 -46 -10 -19 -9
-20 14 -14 17 4 31 1 42 -10 15 -15 17 -15 22 4 3 13 10 19 19 15 11 -4 14 5
14 34 0 62 -48 94 -84 57z"/>
<path d="M967 5575 c-9 -19 -15 -35 -12 -35 7 0 37 61 33 66 -3 2 -12 -12 -21
-31z"/>
<path d="M846 5575 c-9 -26 -7 -32 5 -12 6 10 9 21 6 23 -2 3 -7 -2 -11 -11z"/>
<path d="M911 5483 c-25 -36 -26 -41 -6 -18 26 30 49 65 42 65 -2 0 -18 -21
-36 -47z"/>
<path d="M781 5484 c0 -11 3 -14 6 -6 3 7 2 16 -1 19 -3 4 -6 -2 -5 -13z"/>
<path d="M801 5414 c0 -11 3 -14 6 -6 3 7 2 16 -1 19 -3 4 -6 -2 -5 -13z"/>
<path d="M772 5395 c0 -16 2 -22 5 -12 2 9 2 23 0 30 -3 6 -5 -1 -5 -18z"/>
<path d="M470 5145 c0 -15 -6 -25 -14 -25 -10 0 -14 -9 -13 -27 2 -24 -2 -29
-25 -31 -36 -4 -36 -22 -1 -22 18 0 37 -12 62 -41 97 -110 99 -111 136 -107
19 2 35 3 35 2 0 -2 -5 -15 -11 -30 -13 -35 -5 -70 19 -83 24 -13 122 -41 122
-35 0 3 -13 10 -30 15 -27 10 -30 15 -30 55 0 24 4 44 9 44 25 0 110 -166 136
-267 22 -84 19 -202 -7 -297 l-22 -81 -12 85 c-11 85 -41 161 -89 225 -45 60
-57 94 -46 128 l11 32 -20 -23 c-26 -31 -36 -104 -20 -155 7 -23 35 -80 62
-127 28 -46 55 -96 61 -110 6 -15 11 -101 12 -210 1 -102 5 -198 9 -215 8 -29
7 -28 -32 16 -87 98 -238 145 -294 92 -26 -25 -58 -29 -89 -13 -14 8 -19 7
-19 -2 -1 -8 -6 -6 -14 5 -11 14 -15 15 -19 5 -4 -9 -15 -3 -36 20 -17 18 -31
27 -31 20 -1 -20 -40 32 -40 53 0 10 8 22 17 28 27 15 7 26 -22 13 -21 -10
-25 -18 -23 -47 2 -39 34 -75 105 -119 24 -14 43 -31 43 -37 0 -6 -14 -22 -31
-36 -17 -15 -49 -55 -70 -89 -65 -102 -132 -147 -166 -113 -7 7 -13 7 -17 1
-3 -5 6 -20 19 -33 14 -13 37 -36 52 -51 15 -16 33 -28 40 -28 7 0 13 -4 13
-8 0 -14 -35 -42 -53 -42 -9 0 -17 -4 -17 -10 0 -5 7 -10 15 -10 8 0 19 -9 25
-20 10 -20 19 -20 97 -4 26 5 67 78 78 137 4 20 11 34 16 31 15 -9 10 -45 -12
-91 -25 -51 -20 -72 13 -66 15 3 30 -3 42 -16 23 -25 46 -27 46 -5 0 9 9 23
21 32 11 10 21 24 23 32 2 8 8 26 13 39 l10 25 18 -27 c15 -24 22 -27 54 -21
47 9 61 21 61 52 l0 26 -16 -22 c-17 -25 -46 -29 -64 -7 -7 8 -16 52 -21 97
-6 55 -18 97 -34 125 l-24 43 22 0 c21 0 21 1 -2 13 -14 6 -27 18 -29 26 -7
22 81 6 142 -26 65 -35 189 -158 250 -248 45 -68 88 -179 100 -260 5 -33 2
-28 -17 25 -13 36 -38 94 -56 130 -26 52 -32 59 -29 33 l4 -32 -33 30 c-52 45
-50 35 6 -28 28 -31 51 -60 51 -64 0 -4 -10 -5 -22 -1 -22 5 -22 4 3 -22 39
-39 102 -175 144 -311 35 -115 113 -273 187 -383 63 -91 119 -230 192 -467
l15 -50 -5 47 c-3 26 -18 93 -35 150 -55 192 -50 380 12 433 64 53 149 22 165
-61 6 -32 8 -35 15 -19 37 95 -31 180 -124 154 -73 -20 -127 -121 -127 -238
l-1 -56 -19 37 c-32 60 -72 190 -68 220 4 22 2 25 -9 16 -12 -10 -13 -6 -8 18
5 22 4 25 -4 14 -8 -12 -11 -5 -13 30 l-1 45 -4 -38 c-4 -36 -5 -38 -22 -23
-15 14 -15 8 5 -53 12 -37 34 -92 49 -122 39 -81 -4 -23 -56 75 l-42 79 -5
141 c-3 110 -1 155 12 205 16 62 48 121 67 121 13 0 11 -34 -3 -48 -9 -9 -9
-12 -1 -12 7 0 15 5 19 11 7 12 74 -48 74 -67 0 -7 -7 -20 -16 -28 -10 -11
-11 -16 -3 -16 17 0 38 31 39 58 0 13 4 21 10 17 5 -3 21 -3 35 1 18 4 25 13
25 29 0 13 5 27 10 30 19 12 10 25 -19 25 -16 0 -35 8 -42 17 -12 15 -12 16 6
9 67 -25 99 -14 114 42 9 30 0 44 -14 22 -14 -23 -21 -7 -19 43 3 50 3 51 -11
26 -15 -27 -45 -43 -104 -54 -29 -6 -33 -5 -27 10 3 9 8 35 11 58 3 23 8 56
10 72 3 18 2 25 -3 17 -7 -10 -11 -10 -22 3 -14 17 -46 20 -55 5 -3 -5 3 -10
13 -10 22 0 51 -62 32 -68 -5 -2 -10 -17 -10 -33 0 -18 -4 -28 -10 -24 -5 3
-10 -2 -10 -11 0 -10 -3 -14 -7 -10 -4 3 -12 -8 -17 -26 -10 -29 -16 -34 -55
-39 -55 -7 -94 -49 -112 -121 -7 -26 -16 -45 -19 -41 -15 18 -40 175 -40 251
0 147 58 225 185 247 43 8 105 41 105 56 0 6 -7 6 -17 1 -10 -5 -41 -12 -70
-15 -60 -7 -98 -25 -148 -68 -42 -37 -45 -31 -8 17 40 53 99 83 198 99 60 9
100 22 127 40 22 15 38 28 36 29 -8 7 -170 -15 -209 -28 -24 -8 -45 -13 -48
-11 -9 10 163 77 279 109 30 9 69 27 85 41 l30 26 -40 -19 c-22 -11 -75 -24
-118 -31 -43 -6 -92 -18 -110 -26 -29 -15 -28 -13 13 26 57 52 113 78 170 79
25 1 54 5 65 10 15 7 10 9 -25 10 -25 1 -55 5 -68 8 -21 7 -19 10 27 49 26 23
51 52 54 64 5 19 1 17 -28 -11 -42 -41 -58 -33 -21 11 36 42 53 78 65 130 10
43 9 44 -8 22 -19 -22 -19 -22 -23 32 -7 80 -60 127 -88 76 -14 -27 7 -39 26
-15 13 18 15 18 35 -6 19 -22 21 -34 17 -98 -4 -63 -10 -79 -41 -125 -40 -58
-287 -321 -294 -313 -9 8 20 51 65 99 26 26 41 47 34 47 -28 0 -73 -32 -100
-73 -16 -23 -39 -51 -51 -61 -21 -19 -21 -19 -21 7 0 14 -4 29 -10 32 -6 4
-10 -9 -10 -31 0 -26 -12 -58 -40 -104 -27 -44 -46 -92 -56 -141 -8 -40 -17
-75 -18 -77 -4 -4 -71 187 -86 243 -22 86 -7 212 36 297 24 48 79 98 107 98
59 0 115 -78 103 -143 -8 -43 -64 -107 -94 -107 -49 0 -73 109 -32 150 33 33
70 19 70 -25 0 -29 -10 -37 -28 -22 -13 10 -14 9 -10 -3 7 -23 35 -23 48 0 22
42 -17 88 -64 76 -35 -9 -71 -83 -62 -130 8 -42 37 -76 65 -76 10 0 33 10 51
23 76 51 98 154 47 220 -29 38 -84 62 -117 52 -11 -3 -34 -18 -50 -32 -36 -30
-37 -26 -6 35 44 88 115 142 184 142 35 0 49 -6 73 -29 33 -33 35 -50 14 -90
-22 -45 -67 -55 -85 -21 -14 26 -3 45 16 29 24 -20 43 6 21 28 -15 16 -18 15
-37 -2 -26 -23 -26 -49 1 -76 24 -24 54 -18 87 17 31 35 30 97 -2 129 -26 26
-95 49 -120 39 -21 -8 -21 -6 10 84 29 86 61 122 140 161 63 32 131 38 172 17
62 -32 25 -102 -49 -94 -62 6 -65 66 -3 79 l29 7 -31 1 c-19 1 -38 -6 -49 -19
-15 -17 -16 -24 -5 -49 21 -53 95 -51 138 4 15 19 19 33 13 48 -10 27 -66 57
-107 57 -40 0 -126 -26 -169 -51 -19 -12 -35 -19 -35 -17 2 29 63 236 77 260
21 37 92 78 136 78 50 0 87 -27 112 -83 26 -59 68 -103 107 -112 62 -16 148
46 148 105 0 30 -34 80 -46 67 -4 -4 2 -14 14 -23 50 -35 11 -116 -63 -130
-46 -8 -78 13 -120 81 -16 26 -46 65 -66 86 -31 33 -43 39 -79 39 -51 0 -96
-20 -139 -62 -46 -45 -59 -74 -90 -211 -25 -107 -35 -131 -79 -197 -28 -42
-65 -109 -83 -150 -17 -41 -33 -76 -34 -78 -2 -2 -1 41 2 95 4 78 1 116 -16
185 -24 100 -61 197 -96 250 -16 25 -21 38 -13 38 7 0 0 12 -15 25 -16 14 -33
23 -38 20 -5 -4 -9 9 -9 27 0 54 -40 101 -94 112 -85 17 -104 26 -116 56 -15
37 -30 39 -30 5z m549 -650 c-13 -25 -29 -51 -37 -58 -8 -6 0 17 17 52 18 35
35 61 38 58 3 -3 -5 -26 -18 -52z m-381 -570 c92 -43 195 -166 245 -294 10
-24 16 -46 13 -48 -2 -3 -22 22 -44 54 -95 139 -226 249 -325 273 -70 18 -61
38 18 39 23 1 63 -10 93 -24z m491 -582 c-40 -80 -54 -185 -40 -305 6 -50 9
-94 7 -96 -2 -2 -14 23 -27 55 -31 82 -38 235 -13 301 18 48 65 102 89 102 9
0 4 -18 -16 -57z"/>
<path d="M1320 4930 c-8 -5 -10 -10 -5 -10 6 0 17 5 25 10 8 5 11 10 5 10 -5
0 -17 -5 -25 -10z"/>
<path d="M1361 4913 c-1 -12 -9 -27 -18 -32 -10 -6 -13 -11 -8 -12 6 0 -1 -5
-15 -9 l-25 -8 26 -1 c35 -1 58 27 48 59 -6 23 -7 23 -8 3z"/>
<path d="M808 4858 c29 -46 78 -78 121 -78 l36 0 -40 19 c-22 11 -58 36 -80
55 -50 45 -63 46 -37 4z"/>
<path d="M1633 3330 c-135 -32 -273 -167 -332 -326 -33 -87 -35 -114 -3 -43
57 130 182 262 281 300 86 32 166 35 247 11 118 -36 179 -95 205 -195 9 -36 8
-57 -5 -107 -26 -102 -74 -150 -151 -150 -84 0 -161 83 -140 150 8 26 18 25
30 -2 14 -31 58 -35 84 -9 58 58 -18 149 -96 116 -41 -17 -63 -61 -63 -125 0
-65 21 -101 74 -131 130 -73 296 31 313 195 15 147 -86 275 -246 312 -61 15
-147 16 -198 4z"/>
<path d="M590 3191 c-40 -13 -88 -39 -160 -91 -135 -97 -202 -117 -270 -81
-47 24 -52 11 -11 -30 24 -23 38 -29 73 -29 42 0 100 23 147 57 l23 17 -7 -32
c-9 -41 8 -42 25 -2 13 31 86 110 102 110 5 0 4 -8 -2 -19 -5 -11 -10 -28 -9
-38 0 -17 1 -17 12 1 31 50 86 88 147 101 l34 7 -32 -31 c-47 -48 -55 -126
-16 -165 8 -9 23 -16 32 -16 13 0 12 3 -6 16 -31 21 -28 48 11 90 51 56 96 57
200 6 99 -48 150 -65 97 -31 -19 12 -60 45 -91 74 -77 70 -132 95 -211 94 -35
0 -74 -4 -88 -8z"/>
<path d="M2399 2982 c6 -11 16 -24 21 -27 6 -4 8 -10 6 -14 -3 -4 12 -18 34
-30 51 -29 122 -108 173 -195 47 -80 119 -244 115 -258 -2 -5 -23 24 -46 64
-50 83 -47 56 4 -44 19 -37 34 -70 34 -74 0 -4 -19 18 -42 49 -24 31 -49 59
-56 61 -7 3 0 -11 16 -32 16 -20 52 -70 81 -110 l52 -73 -46 26 c-24 15 -50
25 -57 23 -6 -2 2 -10 18 -16 16 -7 43 -31 59 -54 77 -104 193 -166 394 -208
151 -32 218 -36 93 -6 -93 23 -199 74 -241 117 -60 59 -75 108 -67 215 5 66 4
100 -5 116 -11 21 -14 15 -29 -60 -19 -89 -14 -146 15 -203 9 -17 14 -33 11
-36 -9 -9 -63 85 -76 133 -12 42 -11 57 9 141 24 100 23 163 -4 199 -13 18
-14 16 -15 -16 0 -20 -9 -61 -20 -92 -11 -32 -20 -86 -21 -124 -1 -47 -4 -62
-11 -50 -8 14 -9 72 -5 371 1 33 -5 69 -12 80 -11 18 -11 15 -6 -17 3 -23 -2
-72 -16 -128 -11 -50 -19 -107 -17 -126 7 -57 -6 -38 -36 52 -29 85 -29 86
-12 145 9 32 16 71 15 86 -1 28 -1 28 -10 -4 -5 -18 -20 -49 -33 -68 l-24 -34
-21 57 c-22 59 -34 77 -64 101 -13 11 -12 2 9 -43 14 -32 24 -59 21 -62 -2 -3
-18 17 -35 43 -36 56 -71 90 -126 123 -37 23 -38 23 -27 2z"/>
<path d="M918 2942 c-28 -35 -37 -89 -19 -107 6 -6 5 -33 -3 -70 -12 -60 -29
-66 -20 -7 3 17 0 42 -7 54 -14 28 -50 68 -60 68 -13 0 -39 -56 -39 -83 0 -37
38 -80 66 -74 35 6 46 -15 50 -92 2 -37 12 -92 23 -121 11 -30 19 -55 17 -58
-2 -2 -13 6 -24 18 -41 44 -157 32 -139 -13 8 -21 72 -33 103 -18 36 16 50 14
80 -12 l28 -24 -45 1 c-38 1 -44 -2 -47 -21 -3 -18 3 -23 33 -29 23 -4 45 -2
61 6 21 12 27 11 47 -7 12 -12 63 -45 112 -74 223 -130 310 -205 358 -307 16
-35 28 -65 25 -67 -2 -2 -31 9 -63 24 -86 41 -190 71 -267 78 -37 3 -65 10
-62 14 9 16 -39 9 -57 -7 -17 -15 -20 -15 -34 -1 -21 22 -81 32 -109 19 -12
-5 -44 -29 -70 -51 -42 -37 -52 -41 -82 -35 -36 7 -45 -5 -20 -26 8 -6 12 -18
9 -26 -3 -8 1 -14 10 -14 22 0 30 -30 12 -50 -23 -26 -5 -33 22 -8 19 18 40
23 115 28 86 6 93 9 117 37 l26 30 23 -28 c33 -41 67 -38 126 11 26 22 44 40
38 40 -5 0 -15 -7 -22 -15 -18 -21 -30 -19 -70 16 l-35 31 85 -6 c179 -10 333
-84 437 -207 35 -41 63 -77 63 -81 0 -3 -26 9 -57 28 -72 43 -110 54 -203 60
-117 7 -140 13 -167 42 l-26 27 8 -25 c9 -33 60 -85 100 -104 17 -9 89 -22
160 -30 148 -18 185 -33 262 -109 50 -49 58 -67 27 -67 -8 0 -36 -11 -63 -24
l-50 -24 -28 30 c-15 17 -62 46 -103 65 -41 19 -92 51 -113 71 -21 20 -35 30
-32 21 5 -15 1 -15 -53 -1 -55 15 -61 15 -86 -1 -30 -20 -33 -39 -10 -58 17
-14 44 -4 52 21 3 9 -2 11 -22 6 -32 -8 -36 11 -4 23 25 9 71 1 109 -20 15 -8
70 -56 123 -106 87 -83 94 -93 74 -98 -35 -9 -61 -9 -88 -1 l-25 8 23 -23 c16
-17 33 -24 63 -24 l41 0 -28 -12 c-26 -12 -70 -10 -116 3 -10 3 -18 1 -18 -4
0 -12 45 -30 85 -34 28 -3 26 -5 -35 -38 -51 -26 -77 -34 -122 -34 -32 -1 -58
-4 -58 -8 0 -10 55 -38 77 -38 11 -1 3 -9 -21 -22 -62 -32 -171 -12 -194 36
-10 20 -11 20 -11 1 -1 -11 6 -31 15 -43 14 -20 14 -22 -3 -22 -35 0 -119 48
-155 88 -29 32 -38 51 -38 78 0 42 22 87 52 108 46 32 149 12 182 -35 18 -26
20 -38 7 -58 -7 -11 -13 -10 -33 3 -27 17 -53 13 -62 -9 -8 -21 19 -37 56 -33
26 2 37 10 53 40 19 35 19 38 2 73 -22 46 -81 74 -155 75 -69 0 -121 -27 -150
-78 -73 -131 49 -280 246 -298 127 -12 254 37 362 141 l65 63 59 -8 c69 -10
246 -69 246 -83 0 -5 -8 -6 -17 -2 -21 7 -193 18 -178 10 6 -3 39 -11 75 -19
48 -10 60 -15 45 -20 -34 -12 -85 -39 -82 -43 2 -2 21 4 43 13 41 17 130 15
254 -5 98 -17 249 -12 305 10 37 14 41 17 15 11 -71 -15 -153 -8 -200 16 -25
13 -39 18 -32 11 24 -26 11 -28 -40 -8 -65 25 -143 74 -164 103 -16 21 -16 20
-10 -7 6 -25 5 -27 -12 -18 -29 15 -40 32 -52 83 -14 55 -40 86 -40 47 0 -13
9 -43 20 -67 l19 -43 -39 22 c-52 29 -107 86 -94 98 11 12 114 51 133 51 7 0
46 -30 85 -67 91 -87 155 -129 233 -153 76 -23 229 -40 368 -40 102 0 103 0
109 -26 11 -44 50 -74 95 -74 44 0 87 16 95 35 3 10 -3 11 -29 4 -41 -12 -81
2 -90 31 -4 12 -5 23 -3 25 1 2 44 8 94 14 50 6 124 22 164 36 40 14 74 25 75
25 1 0 1 -23 1 -50 0 -35 6 -58 21 -78 24 -33 83 -57 117 -48 59 15 86 85 46
121 -24 22 -65 14 -81 -16 -13 -26 2 -45 28 -35 17 7 17 8 0 21 -18 13 -18 14
0 23 42 23 73 -37 37 -72 -24 -25 -81 -20 -109 9 -35 34 -35 96 1 132 23 22
32 25 80 21 47 -4 68 -14 152 -71 116 -79 165 -102 254 -117 91 -16 167 -1
203 41 44 53 24 119 -38 119 -52 0 -76 -56 -35 -84 32 -23 11 -39 -59 -44 -71
-5 -154 21 -257 80 -178 103 -194 110 -249 107 -36 -2 -82 7 -152 29 -55 17
-140 39 -189 48 -49 9 -101 20 -115 26 -14 6 -38 10 -53 10 -39 -1 -128 57
-161 104 -35 50 -48 111 -35 167 10 45 55 100 75 93 7 -3 15 -1 18 4 9 15 27
12 19 -2 -4 -7 2 -5 13 5 23 20 40 22 46 5 4 -10 7 -10 17 -1 20 19 -6 43 -47
43 l-34 0 20 26 c51 65 -10 171 -78 135 -46 -25 -52 -89 -10 -112 17 -8 24 -8
36 3 15 15 8 52 -9 42 -5 -3 -4 -11 3 -20 9 -11 8 -14 -9 -14 -18 0 -32 18
-32 41 0 5 9 18 20 29 16 16 24 18 44 9 54 -25 41 -85 -33 -160 -56 -56 -80
-101 -90 -168 l-7 -46 -16 45 c-9 25 -17 36 -17 25 -1 -11 12 -47 27 -80 16
-33 28 -63 28 -67 -1 -3 10 -19 24 -34 15 -18 18 -23 6 -14 -11 8 -17 10 -13
3 10 -16 104 -69 158 -89 78 -28 162 -45 273 -54 59 -5 131 -17 159 -26 47
-15 49 -18 28 -26 -15 -5 -59 -1 -128 12 -57 11 -114 20 -126 20 -50 0 -103
-24 -140 -62 l-38 -39 -54 49 c-113 103 -238 173 -383 214 -61 17 -106 22
-216 22 l-138 1 -35 40 c-90 103 -109 226 -41 261 48 25 106 13 144 -29 62
-68 50 -166 -19 -153 -39 7 -87 57 -87 90 0 35 25 52 55 38 29 -13 33 -38 8
-45 -14 -4 -12 -5 5 -6 17 -1 22 4 22 24 0 51 -76 58 -99 9 -10 -22 -9 -32 6
-62 20 -42 75 -82 109 -82 62 0 84 89 41 164 -29 52 -66 77 -118 83 -81 8
-136 -49 -126 -129 3 -21 3 -38 1 -38 -10 0 -55 105 -65 149 -19 89 24 172 98
187 46 9 85 -32 81 -84 -3 -38 -21 -51 -56 -37 -16 6 -15 8 2 20 11 8 16 21
13 30 -8 19 -21 19 -37 0 -26 -31 19 -83 60 -70 46 15 50 93 7 132 -35 32 -68
35 -117 10 -61 -31 -82 -74 -77 -157 2 -36 8 -74 12 -85 5 -11 -22 9 -60 44
-51 47 -75 79 -91 119 -13 29 -34 71 -48 92 -25 37 -125 128 -166 150 -11 6
-21 21 -21 33 -1 16 -3 17 -6 5 -4 -15 -11 -13 -56 14 -29 17 -79 47 -112 65
-123 70 -185 157 -206 286 -14 86 -7 107 36 107 24 0 45 9 67 28 36 33 33 62
-6 62 -29 0 -86 -45 -86 -68 0 -8 -3 -13 -6 -9 -3 3 -3 24 1 47 6 33 13 43 38
54 47 20 71 52 74 99 5 63 -1 71 -36 52 -25 -12 -30 -13 -33 -1 -2 9 -13 1
-30 -22z m1262 -1466 c144 -31 310 -115 415 -211 l40 -36 -63 5 c-80 7 -110
24 -164 87 -72 87 -176 122 -232 78 -43 -34 -26 -85 26 -77 26 3 37 41 18 64
-11 12 -7 14 21 14 28 0 44 -12 112 -81 l79 -81 -59 7 c-193 22 -287 62 -388
162 -59 58 -65 68 -49 74 32 13 175 9 244 -5z m-452 -133 c20 -15 40 -30 44
-33 6 -4 -99 11 -132 19 -6 2 40 41 47 41 2 0 21 -12 41 -27z m1271 -63 c-25
-15 -176 -42 -211 -38 l-33 3 27 19 c15 10 51 21 80 25 66 8 157 2 137 -9z"/>
<path d="M2246 2957 c-25 -18 -18 -61 12 -65 25 -4 30 13 6 26 -14 8 -14 11 2
26 18 18 76 19 129 2 11 -3 7 0 -10 8 -38 19 -115 20 -139 3z"/>
<path d="M559 2728 c-59 -33 -81 -84 -77 -173 2 -41 1 -75 -2 -74 -3 0 -23 24
-46 52 -74 95 -128 115 -209 78 -87 -40 -113 -104 -73 -180 30 -58 68 -85 115
-84 41 1 83 38 83 73 0 30 -18 70 -35 76 -42 17 -93 -26 -80 -66 6 -20 39 -28
49 -12 3 5 -5 8 -17 8 -33 -1 -29 36 5 48 55 19 91 -51 48 -94 -33 -33 -82
-27 -118 15 -77 87 -30 195 84 195 54 0 96 -31 169 -124 63 -81 142 -152 197
-177 36 -16 28 -26 -38 -45 -113 -33 -206 -17 -253 42 -12 15 -21 21 -21 14 0
-8 19 -32 43 -55 47 -45 115 -71 167 -63 16 3 30 1 30 -4 0 -4 -7 -8 -15 -8
-8 0 -15 -4 -15 -10 0 -23 17 -16 182 72 23 12 49 18 70 15 30 -4 31 -5 11
-12 -38 -12 -26 -25 23 -25 28 0 75 -12 127 -34 84 -34 176 -60 184 -52 2 2
-24 13 -59 25 -35 12 -88 35 -118 52 -101 57 -111 61 -187 70 -168 19 -259
110 -271 271 -8 108 31 168 109 168 51 0 67 -8 84 -41 27 -51 -16 -108 -71
-95 -25 7 -45 41 -37 64 7 17 23 15 23 -2 0 -23 21 -30 38 -12 15 15 15 17 0
32 -19 19 -53 11 -68 -17 -15 -27 12 -75 46 -83 53 -14 114 35 114 90 0 25
-41 81 -68 93 -36 17 -83 13 -123 -11z"/>
<path d="M2150 2693 c75 -27 75 -27 75 -108 -1 -73 6 -93 19 -59 6 15 8 15 26
-1 19 -18 20 -17 20 4 0 18 4 20 25 15 21 -5 25 -3 25 15 0 12 6 21 15 21 8 0
15 5 15 10 0 6 -5 10 -11 10 -6 0 -8 9 -4 21 4 12 3 19 -2 16 -5 -3 -22 3 -38
13 -17 11 -38 17 -51 14 -12 -3 -38 4 -60 15 -21 12 -46 21 -54 20 -13 0 -13
-1 0 -6z"/>
<path d="M953 2679 c-36 -11 -44 -34 -14 -42 47 -12 112 23 80 44 -17 10 -24
10 -66 -2z"/>
<path d="M2105 2680 c-3 -6 1 -7 9 -4 18 7 21 14 7 14 -6 0 -13 -4 -16 -10z"/>
<path d="M1127 2651 c-16 -78 7 -137 69 -180 19 -13 46 -37 59 -53 14 -16 25
-24 25 -18 0 22 -33 76 -76 121 -38 42 -53 75 -66 144 -3 14 -6 11 -11 -14z"/>
<path d="M2070 2655 c-7 -9 -10 -18 -7 -21 3 -3 10 4 17 15 13 25 8 27 -10 6z"/>
<path d="M1656 2623 c-67 -10 -109 -65 -105 -136 1 -23 -3 -53 -11 -67 -13
-25 -13 -25 8 -7 14 13 22 15 27 7 4 -7 22 -18 41 -26 26 -11 39 -11 58 -2 41
18 47 68 9 68 -13 0 -13 -3 -3 -15 34 -41 -27 -61 -74 -24 -26 21 -27 22 -9
43 9 11 11 15 3 9 -8 -7 -18 -13 -22 -13 -14 0 -9 65 7 86 14 19 14 19 15 -1
1 -14 3 -16 7 -5 8 21 34 50 45 50 5 0 6 -10 2 -22 l-6 -21 27 21 c37 29 59
29 49 0 -6 -22 -6 -22 13 -5 26 23 70 22 113 -4 l35 -21 -20 22 c-38 44 -139
74 -209 63z"/>
<path d="M4821 2614 c-36 -25 -29 -97 15 -161 25 -37 36 -63 36 -89 0 -25 3
-33 9 -23 19 31 9 77 -31 137 -40 60 -57 129 -25 102 19 -16 45 -6 45 19 0 26
-23 33 -49 15z"/>
<path d="M3748 2603 c6 -2 18 -2 25 0 6 3 1 5 -13 5 -14 0 -19 -2 -12 -5z"/>
<path d="M2042 2580 c0 -14 2 -19 5 -12 2 6 2 18 0 25 -3 6 -5 1 -5 -13z"/>
<path d="M3827 2585 c27 -12 31 -18 30 -50 -1 -29 5 -43 26 -61 15 -13 27 -27
27 -33 0 -5 11 -4 25 2 14 7 25 18 25 25 0 6 6 12 14 12 22 0 26 46 5 63 -32
28 -61 39 -85 33 -15 -4 -33 -1 -47 9 -12 8 -28 15 -37 15 -8 -1 -1 -7 17 -15z"/>
<path d="M4415 2580 c3 -4 -6 -11 -20 -14 -32 -8 -32 -23 1 -52 29 -28 85 -32
104 -9 18 22 -17 67 -58 76 -17 3 -29 3 -27 -1z"/>
<path d="M4555 2580 c-14 -22 -8 -72 12 -91 19 -20 20 -20 44 0 23 19 23 21 9
47 -19 34 -56 59 -65 44z"/>
<path d="M969 2536 c-16 -35 0 -91 26 -91 26 0 42 46 29 82 -13 37 -41 41 -55
9z"/>
<path d="M3504 2535 c-66 -27 -94 -112 -64 -190 6 -15 7 -25 3 -23 -70 36
-117 52 -158 56 -47 4 -54 1 -114 -44 -36 -27 -84 -53 -110 -60 l-46 -11 42
-7 c53 -9 89 -2 169 35 34 16 77 29 96 29 50 -1 112 -33 174 -92 l56 -53 -33
54 c-26 42 -34 65 -34 103 0 32 -4 48 -12 48 -19 0 -16 9 13 47 26 35 25 40
-7 23 -30 -17 -24 14 7 39 30 24 91 28 117 8 10 -6 19 -26 20 -42 2 -27 -1
-30 -26 -28 -30 2 -34 -19 -5 -25 40 -8 67 80 33 108 -8 7 -15 18 -15 24 0 15
-70 16 -106 1z"/>
<path d="M2041 2505 c0 -27 6 -49 34 -120 6 -16 0 -13 -26 11 -46 41 -74 61
-66 47 4 -6 2 -13 -5 -16 -7 -2 -5 -3 5 -2 9 2 17 0 17 -4 0 -4 14 -15 30 -25
27 -15 80 -76 117 -132 7 -11 -7 22 -32 71 -24 50 -51 115 -59 145 -11 41 -15
47 -15 25z"/>
<path d="M1663 2507 c-17 -7 -35 -16 -40 -21 -4 -5 -3 -6 4 -3 6 4 37 13 70
21 39 10 48 14 28 14 -16 0 -44 -5 -62 -11z"/>
<path d="M1781 2516 c2 -2 24 -6 49 -9 30 -4 38 -3 25 3 -19 8 -83 14 -74 6z"/>
<path d="M1910 2486 c0 -3 14 -12 30 -21 17 -9 30 -13 30 -11 0 3 -13 12 -30
21 -16 9 -30 13 -30 11z"/>
<path d="M4540 2486 c0 -2 8 -10 18 -17 15 -13 16 -12 3 4 -13 16 -21 21 -21
13z"/>
<path d="M2225 2454 c-22 -8 -47 -22 -55 -30 -13 -14 -12 -14 17 0 45 22 99
20 158 -8 57 -26 94 -66 130 -136 56 -111 116 -150 230 -149 39 0 86 7 105 14
l35 13 -35 1 c-51 1 -103 18 -144 46 -32 22 -35 22 -26 5 6 -10 18 -24 28 -29
16 -10 15 -10 -3 -11 -24 0 -71 30 -91 58 -7 11 -21 52 -29 92 -16 77 -25 100
-50 120 -22 18 -29 6 -12 -22 8 -12 18 -36 21 -53 l7 -30 -21 31 c-37 57 -130
105 -200 103 -14 0 -43 -7 -65 -15z"/>
<path d="M3536 2445 c-3 -9 -6 -24 -5 -33 0 -9 5 -4 10 12 9 32 6 48 -5 21z"/>
<path d="M4482 2448 c-7 -7 -12 -18 -12 -25 0 -19 74 -17 90 2 7 9 19 14 26
11 7 -3 11 0 8 7 -6 16 -96 21 -112 5z"/>
<path d="M1898 2433 c12 -2 30 -2 40 0 9 3 -1 5 -23 4 -22 0 -30 -2 -17 -4z"/>
<path d="M1828 2408 c-13 -13 -17 -18 -8 -12 8 6 24 16 35 22 11 6 15 12 8 12
-7 0 -22 -10 -35 -22z"/>
<path d="M3729 2401 c-16 -16 -29 -35 -29 -43 1 -7 7 -1 16 14 8 15 24 32 35
38 17 10 23 7 40 -14 25 -32 33 -32 59 -4 25 27 12 38 -48 38 -35 0 -49 -6
-73 -29z"/>
<path d="M4956 2379 c-5 -34 -21 -56 -86 -124 -79 -82 -111 -128 -47 -68 17
17 51 40 74 52 56 28 83 68 83 124 0 59 -16 69 -24 16z"/>
<path d="M4087 2399 c-61 -10 -93 -51 -88 -114 1 -15 5 -12 17 14 18 42 41 60
77 61 74 1 145 -74 240 -256 72 -137 140 -248 158 -260 5 -3 -13 31 -40 75
-31 52 -62 123 -86 198 -47 148 -62 177 -118 232 -49 47 -94 62 -160 50z"/>
<path d="M4555 2400 c-12 -4 -27 -15 -34 -24 -12 -14 -11 -16 8 -16 31 0 61
18 61 35 0 17 -6 18 -35 5z"/>
<path d="M1515 2379 c-4 -6 -5 -12 -2 -15 2 -3 7 2 10 11 7 17 1 20 -8 4z"/>
<path d="M3523 2355 c0 -22 2 -30 4 -17 2 12 2 30 0 40 -3 9 -5 -1 -4 -23z"/>
<path d="M4333 2351 c54 -61 67 -97 67 -191 0 -67 18 -150 32 -150 2 0 3 51 3
113 -1 124 -15 167 -72 218 -55 49 -68 54 -30 10z"/>
<path d="M1150 2347 c0 -37 50 -88 90 -93 27 -3 31 -1 22 8 -7 7 -12 22 -12
34 0 26 -53 74 -81 74 -13 0 -19 -7 -19 -23z"/>
<path d="M1460 2348 c-35 -38 -31 -103 10 -140 17 -15 30 -32 30 -37 0 -6 4
-12 9 -15 5 -4 7 2 4 13 -3 11 2 21 11 24 9 4 16 12 16 18 0 8 -4 8 -14 0 -17
-14 -43 -4 -67 25 -10 12 -11 18 -3 21 7 2 10 12 7 22 -2 10 2 34 11 54 17 43
15 46 -14 15z"/>
<path d="M4722 2363 c-7 -3 -19 -18 -27 -34 -15 -28 -15 -29 9 -29 26 0 66 34
66 57 0 13 -23 16 -48 6z"/>
<path d="M1496 2335 c-3 -9 -6 -24 -5 -33 0 -9 5 -4 10 12 9 32 6 48 -5 21z"/>
<path d="M1780 2330 c-13 -8 -12 -10 3 -10 9 0 17 5 17 10 0 12 -1 12 -20 0z"/>
<path d="M3690 2329 c0 -5 5 -7 10 -4 6 3 10 8 10 11 0 2 -4 4 -10 4 -5 0 -10
-5 -10 -11z"/>
<path d="M1858 2323 c7 -3 16 -2 19 1 4 3 -2 6 -13 5 -11 0 -14 -3 -6 -6z"/>
<path d="M3758 2323 c7 -3 16 -2 19 1 4 3 -2 6 -13 5 -11 0 -14 -3 -6 -6z"/>
<path d="M3798 2324 c-18 -17 -6 -71 23 -109 28 -37 30 -38 36 -17 4 17 10 21
26 16 17 -5 19 -3 15 20 -4 20 -1 26 13 26 27 0 21 54 -6 57 -11 0 -38 4 -60
8 -22 4 -43 3 -47 -1z"/>
<path d="M1735 2310 c-3 -6 1 -7 9 -4 18 7 21 14 7 14 -6 0 -13 -4 -16 -10z"/>
<path d="M3629 2303 c-13 -16 -12 -17 4 -4 16 13 21 21 13 21 -2 0 -10 -8 -17
-17z"/>
<path d="M4584 2306 c-8 -20 12 -53 37 -61 26 -9 33 -2 24 24 -13 42 -50 64
-61 37z"/>
<path d="M1920 2307 c0 -3 12 -12 26 -22 15 -9 23 -12 20 -6 -7 11 -46 35 -46
28z"/>
<path d="M1700 2280 c-6 -11 -8 -20 -6 -20 3 0 10 9 16 20 6 11 8 20 6 20 -3
0 -10 -9 -16 -20z"/>
<path d="M3531 2284 c0 -11 3 -14 6 -6 3 7 2 16 -1 19 -3 4 -6 -2 -5 -13z"/>
<path d="M4661 2295 c0 -5 4 -19 8 -29 7 -19 8 -19 13 2 4 12 2 20 -2 17 -5
-3 -11 1 -13 7 -3 7 -5 9 -6 3z"/>
<path d="M5343 2278 c-27 -28 -29 -60 -7 -82 19 -20 25 -20 49 -2 17 12 17 16
6 30 -8 9 -20 15 -28 12 -19 -8 -16 8 5 27 30 28 66 21 101 -18 58 -66 31
-107 -97 -148 -46 -15 -85 -27 -86 -27 -2 0 -1 11 1 24 4 18 -1 27 -17 36 -20
11 -21 10 -15 -23 6 -32 2 -40 -55 -103 -60 -66 -110 -147 -110 -179 0 -24
-17 -18 -24 9 -3 13 -24 40 -46 60 -34 31 -47 36 -89 36 -81 0 -133 -58 -111
-125 21 -64 97 -71 130 -12 20 35 4 62 -36 62 -22 0 -29 -5 -29 -20 0 -11 7
-20 15 -20 8 0 14 8 14 18 -2 25 23 21 32 -5 13 -44 -63 -73 -88 -34 -14 21
-8 66 12 86 92 92 225 -71 191 -237 -20 -102 -48 -140 -171 -240 -120 -97
-139 -116 -170 -175 -26 -48 -25 -93 0 -118 49 -49 253 -6 457 96 152 76 192
88 247 73 45 -12 96 -58 96 -87 0 -26 -46 -74 -68 -70 -9 2 -16 11 -14 20 4
26 -15 30 -31 7 -10 -13 -17 -17 -22 -9 -9 14 12 40 34 41 9 0 11 3 4 5 -22 9
-54 -16 -51 -39 7 -47 83 -53 131 -10 53 48 37 107 -38 143 -39 19 -58 22
-118 18 -65 -4 -84 -11 -190 -67 -185 -99 -155 -66 53 57 57 33 200 89 270
105 100 23 160 30 160 18 0 -21 -32 -42 -54 -35 -21 7 -21 6 -2 -15 24 -26 36
-26 71 0 22 18 29 20 36 8 24 -34 48 -87 58 -126 7 -24 26 -73 44 -110 l32
-68 3 50 c5 76 -5 109 -46 153 -35 37 -106 142 -100 147 9 9 132 -20 199 -46
93 -36 168 -84 278 -179 76 -66 81 -69 81 -44 0 37 -28 91 -59 113 -14 10 -53
28 -86 39 -33 11 -105 41 -160 66 -58 27 -137 53 -185 63 -74 14 -90 21 -123
54 -21 21 -62 48 -90 59 l-52 21 90 -5 c52 -3 132 -16 190 -32 132 -35 318
-44 427 -20 94 21 180 62 241 114 27 23 52 42 56 42 5 0 20 -9 34 -20 14 -11
30 -20 35 -20 6 0 13 -9 17 -19 8 -27 36 -35 54 -16 22 22 2 51 -33 47 -26 -3
-86 31 -86 48 0 16 56 44 89 45 41 0 62 25 42 49 -24 29 -71 13 -71 -24 0 -15
-38 -40 -60 -40 -5 0 -15 18 -21 40 -9 31 -9 43 1 55 18 21 5 47 -22 43 -29
-4 -36 -37 -12 -55 33 -24 22 -69 -32 -124 -97 -100 -197 -138 -384 -146 -110
-5 -140 -2 -245 20 -143 31 -256 46 -347 49 -38 1 -65 6 -61 11 3 5 -4 4 -15
-2 -36 -19 -48 -12 -22 13 14 12 36 36 50 52 21 24 19 24 -14 -6 -28 -25 -37
-29 -31 -15 4 11 10 33 13 48 4 23 8 26 26 21 11 -3 23 -7 26 -7 18 -4 62 41
72 74 12 43 23 49 33 20 3 -11 17 -27 31 -35 23 -16 25 -15 50 9 21 21 23 29
14 40 -17 21 -50 19 -50 -2 0 -15 2 -16 10 -3 7 12 12 12 22 2 10 -10 9 -16
-5 -29 -21 -21 -44 -10 -67 30 -14 25 -13 28 15 58 l30 32 -31 -21 -31 -22
-18 45 c-29 77 -126 134 -206 123 l-33 -5 23 18 c21 17 89 41 153 54 14 3 40
17 57 31 42 35 43 90 3 135 -23 25 -38 33 -78 36 -42 4 -52 2 -71 -19z m17
-284 c0 -3 -9 -17 -20 -31 -24 -31 -25 -48 -3 -138 24 -103 22 -136 -11 -179
-37 -50 -63 -65 -148 -86 -40 -11 -83 -22 -96 -26 -21 -6 -20 -2 19 75 39 77
72 111 110 111 20 0 49 -32 49 -54 1 -19 1 -20 11 -3 6 9 7 27 3 40 -20 68
-87 78 -141 21 l-33 -36 6 59 c12 121 55 194 139 237 29 15 115 22 115 10z
m54 -46 c14 -24 -4 -53 -32 -52 -12 0 -19 -3 -16 -8 12 -18 45 -6 63 22 l18
31 22 -50 c26 -61 26 -65 0 -110 -11 -20 -14 -27 -5 -17 9 11 16 16 16 10 0
-15 -13 -28 -43 -44 -37 -19 -60 -4 -68 43 -7 44 -1 55 37 67 25 7 26 8 6 9
-13 1 -32 -3 -42 -9 -15 -8 -20 -5 -29 22 -15 42 -14 59 5 86 18 27 51 26 68
0z m42 -423 c45 -29 23 -105 -30 -105 -12 0 -27 5 -34 12 -9 9 -12 9 -12 1 0
-7 5 -15 10 -18 18 -11 11 -22 -17 -29 -16 -3 -39 -8 -53 -12 -21 -6 -23 -4
-12 7 23 25 15 75 -19 103 -25 21 -41 26 -86 26 -72 0 -63 8 29 26 86 16 191
11 224 -11z m132 -31 c12 -8 20 -19 17 -24 -3 -5 0 -12 7 -17 13 -7 -41 -21
-89 -22 -19 -1 -21 3 -16 38 3 23 1 41 -6 45 -6 4 -11 11 -11 17 0 10 61 -13
98 -37z m-293 -31 c22 -28 18 -62 -11 -88 -29 -27 -40 -30 -49 -15 -3 6 -17
10 -31 10 -22 0 -25 -4 -22 -27 2 -23 -4 -33 -37 -56 -53 -37 -196 -110 -202
-103 -3 3 11 24 32 47 20 23 53 76 72 118 19 42 44 86 56 99 28 31 80 30 112
-3 14 -13 25 -19 25 -13 0 19 -32 48 -54 49 -18 1 -18 2 4 8 34 10 89 -3 105
-26z m-258 -99 c-64 -122 -150 -216 -215 -235 -137 -40 -90 110 71 228 48 35
189 114 194 109 2 -1 -21 -47 -50 -102z"/>
<path d="M5375 1920 c-3 -5 -1 -10 4 -10 6 0 11 5 11 10 0 6 -2 10 -4 10 -3 0
-8 -4 -11 -10z"/>
<path d="M5170 1430 c0 -5 7 -10 15 -10 8 0 15 5 15 10 0 6 -7 10 -15 10 -8 0
-15 -4 -15 -10z"/>
<path d="M1031 2266 c-13 -15 -1 -29 37 -41 32 -10 78 20 61 41 -15 18 -83 18
-98 0z"/>
<path d="M1482 2255 c0 -16 2 -22 5 -12 2 9 2 23 0 30 -3 6 -5 -1 -5 -18z"/>
<path d="M1791 2264 c0 -11 3 -14 6 -6 3 7 2 16 -1 19 -3 4 -6 -2 -5 -13z"/>
<path d="M1980 2266 c0 -2 8 -10 18 -17 15 -13 16 -12 3 4 -13 16 -21 21 -21
13z"/>
<path d="M4687 2250 c-9 -11 -18 -30 -20 -42 -2 -13 -2 -18 0 -11 2 7 10 10
17 7 16 -6 60 41 51 55 -10 17 -29 13 -48 -9z"/>
<path d="M1680 2208 c0 -56 12 -77 34 -59 9 8 16 10 17 5 0 -5 4 2 10 14 11
28 8 34 -31 62 l-30 21 0 -43z"/>
<path d="M3602 2220 c0 -19 2 -27 5 -17 2 9 2 25 0 35 -3 9 -5 1 -5 -18z"/>
<path d="M1796 2206 c-4 -18 -1 -47 5 -65 6 -17 9 -43 6 -56 -3 -18 -1 -23 7
-16 7 6 22 8 34 4 18 -4 22 -1 22 17 0 18 4 21 24 16 29 -7 38 1 25 25 -8 15
-6 19 9 19 10 0 22 3 25 6 9 10 -62 64 -92 70 -14 3 -33 7 -43 8 -11 3 -18 -6
-22 -28z"/>
<path d="M2021 2215 c9 -11 29 -41 44 -68 l27 -47 -35 -39 c-38 -42 -58 -95
-56 -151 l1 -35 7 30 c7 29 7 30 19 8 7 -12 12 -33 12 -47 0 -14 9 -31 22 -40
29 -21 33 -20 57 5 l20 22 -21 29 c-16 23 -26 29 -46 25 -32 -6 -51 16 -52 59
0 32 28 82 31 54 1 -8 1 -23 0 -32 -2 -16 26 -38 47 -38 6 0 13 7 16 16 8 21
-21 55 -40 47 -18 -7 -19 38 -2 55 19 19 26 15 52 -35 14 -27 25 -44 26 -40 0
4 -9 25 -20 47 -11 22 -20 43 -20 49 0 13 57 31 88 27 15 -2 21 -1 15 1 -7 2
-13 9 -13 14 0 5 -22 0 -50 -10 l-50 -19 -30 53 c-17 29 -38 59 -48 66 -16 13
-16 12 -1 -6z"/>
<path d="M5815 2206 c-17 -7 -37 -21 -45 -32 -14 -18 -14 -18 6 -2 11 10 38
24 60 32 21 8 32 15 24 15 -8 0 -29 -6 -45 -13z"/>
<path d="M3570 2190 c6 -11 13 -20 16 -20 2 0 0 9 -6 20 -6 11 -13 20 -16 20
-2 0 0 -9 6 -20z"/>
<path d="M5881 2208 c2 -2 18 -14 34 -28 l30 -25 -24 28 c-14 15 -29 27 -34
27 -6 0 -8 -1 -6 -2z"/>
<path d="M3730 2187 c0 -2 15 -16 33 -33 l32 -29 -29 33 c-28 30 -36 37 -36
29z"/>
<path d="M5058 2169 c-10 -5 -18 -20 -18 -33 0 -35 -10 -37 -48 -8 l-35 26 5
-34 c3 -19 8 -43 12 -52 7 -15 2 -17 -34 -15 -35 2 -45 -2 -63 -26 -16 -21
-18 -30 -9 -39 9 -9 16 -8 30 6 14 12 34 16 76 14 31 -2 56 -5 56 -8 0 -3 9
-11 20 -18 20 -12 21 -11 19 25 -2 62 23 126 51 133 32 7 36 26 8 34 -32 8
-50 7 -70 -5z"/>
<path d="M3610 2155 c1 -19 27 -63 33 -54 2 2 -5 20 -15 39 -13 25 -18 29 -18
15z"/>
<path d="M5724 2138 l-19 -23 23 19 c12 11 22 21 22 23 0 8 -8 2 -26 -19z"/>
<path d="M1540 2142 c-27 -12 -24 -75 4 -109 14 -17 26 -36 26 -42 0 -6 5 -11
10 -11 6 0 10 5 10 10 0 6 9 10 20 10 11 0 20 7 20 15 0 8 7 15 15 15 8 0 15
9 15 19 0 11 6 21 13 24 6 2 10 6 7 9 -84 71 -100 78 -140 60z"/>
<path d="M4010 2140 c-12 -8 -9 -10 12 -10 15 0 30 5 33 10 8 13 -25 13 -45 0z"/>
<path d="M5894 2105 c-14 -19 -32 -35 -38 -35 -6 0 -17 -9 -24 -20 -12 -20
-12 -21 17 -5 39 20 44 19 38 -5 -6 -23 3 -26 21 -8 9 9 12 8 12 -5 0 -9 7
-17 15 -17 8 0 15 5 15 11 0 8 5 8 15 -1 14 -11 19 -7 16 13 0 4 7 7 16 7 13
0 14 3 5 12 -17 17 -15 36 6 41 16 4 16 5 0 6 -10 0 -27 10 -38 21 -28 28 -45
25 -76 -15z"/>
<path d="M4561 2111 c-14 -25 -14 -68 -1 -76 5 -3 6 -13 3 -22 -5 -11 1 -9 16
6 17 17 21 31 19 63 -3 46 -21 60 -37 29z"/>
<path d="M3810 2116 c0 -3 9 -10 20 -16 11 -6 20 -8 20 -6 0 3 -9 10 -20 16
-11 6 -20 8 -20 6z"/>
<path d="M3937 2093 c-23 -24 -29 -25 -54 -15 -26 11 -27 11 -9 -3 11 -8 24
-15 29 -15 4 0 5 -6 1 -12 -5 -7 9 5 29 26 42 44 45 60 4 19z"/>
<path d="M4082 2089 c-2 -30 36 -63 62 -53 43 16 16 85 -32 81 -23 -2 -29 -7
-30 -28z"/>
<path d="M4170 2116 c0 -2 8 -10 18 -17 15 -13 16 -12 3 4 -13 16 -21 21 -21
13z"/>
<path d="M760 2098 c-36 -3 -110 -21 -165 -38 -126 -39 -251 -50 -319 -27 -26
9 -44 12 -41 7 12 -19 121 -43 190 -42 45 1 102 11 160 28 140 42 203 54 294
54 46 0 82 2 79 5 -11 12 -137 20 -198 13z"/>
<path d="M4626 2095 c-9 -26 -7 -32 5 -12 6 10 9 21 6 23 -2 3 -7 -2 -11 -11z"/>
<path d="M4657 2092 c-23 -25 -21 -42 2 -42 18 0 51 34 51 52 0 15 -37 8 -53
-10z"/>
<path d="M1298 2085 c-15 -8 -54 -21 -88 -29 -82 -19 -86 -26 -16 -26 62 0
109 19 126 50 13 23 13 23 -22 5z"/>
<path d="M2201 2084 c0 -11 3 -14 6 -6 3 7 2 16 -1 19 -3 4 -6 -2 -5 -13z"/>
<path d="M2296 2060 c17 -19 38 -46 48 -60 9 -13 16 -19 16 -11 0 7 -21 34
-47 60 -27 26 -34 31 -17 11z"/>
<path d="M3570 2090 c19 -5 66 -22 103 -39 37 -17 67 -29 67 -27 0 8 -65 48
-85 52 -14 2 -36 9 -50 14 -15 6 -36 10 -48 9 -14 -1 -9 -4 13 -9z"/>
<path d="M3984 2086 c4 -29 27 -46 47 -35 16 8 17 13 6 29 -14 23 -56 27 -53
6z"/>
<path d="M4211 2081 c-28 -28 -26 -46 10 -83 22 -23 32 -29 38 -20 4 7 15 10
24 6 13 -5 17 0 17 19 0 14 7 27 15 31 18 6 20 26 3 26 -6 0 -19 6 -27 14 -30
26 -59 28 -80 7z"/>
<path d="M3420 2077 c-8 -7 -22 -21 -30 -32 -8 -11 0 -7 18 9 29 27 37 37 30
36 -2 0 -10 -6 -18 -13z"/>
<path d="M6040 2080 c8 -5 20 -10 25 -10 6 0 3 5 -5 10 -8 5 -19 10 -25 10 -5
0 -3 -5 5 -10z"/>
<path d="M2929 2047 c-46 -31 -77 -79 -85 -134 -7 -47 -40 -93 -67 -93 -8 0
-17 -6 -20 -12 -3 -10 -8 -10 -21 1 -9 8 -15 20 -12 28 4 8 1 11 -5 7 -6 -3
-9 -19 -7 -35 3 -17 -1 -34 -9 -40 -23 -20 -14 -29 15 -15 15 8 48 23 74 34
27 13 49 30 53 42 4 13 12 19 20 16 9 -3 12 0 9 9 -3 7 2 27 11 45 40 78 186
93 303 31 62 -34 171 -124 161 -135 -3 -3 -40 19 -82 50 -85 61 -217 114 -217
87 0 -8 9 -17 20 -20 25 -7 25 -11 -2 -34 l-23 -19 35 7 c29 5 33 3 23 -8 -21
-22 -15 -31 9 -15 26 19 47 21 30 4 -23 -23 -12 -33 41 -33 44 0 62 -7 117
-42 36 -23 85 -46 109 -53 l44 -12 -30 -18 c-16 -9 -44 -40 -62 -66 -30 -45
-32 -54 -29 -116 3 -61 7 -71 37 -102 62 -64 172 -72 226 -16 45 47 33 133
-21 146 -31 8 -58 -14 -48 -39 7 -19 49 -23 59 -7 10 16 25 1 25 -24 0 -56
-97 -94 -158 -62 -61 31 -81 120 -42 184 27 43 108 82 174 82 l49 0 -27 -21
c-14 -11 -26 -29 -26 -39 0 -17 3 -16 26 7 22 22 32 25 75 21 71 -7 148 -68
86 -68 -30 0 -57 -9 -57 -20 0 -4 17 -10 39 -14 39 -6 130 -76 151 -117 10
-17 9 -17 -18 -2 -18 10 -38 14 -55 9 -36 -9 -34 -22 4 -30 18 -3 54 -28 87
-60 l57 -55 -40 6 c-30 4 -44 1 -54 -11 -12 -14 -12 -16 1 -11 26 10 70 -14
136 -77 85 -79 135 -101 237 -104 l80 -3 -64 9 c-35 5 -88 21 -117 35 -63 31
-104 88 -210 294 -109 213 -183 278 -350 305 -44 8 -88 17 -99 21 -41 17 -113
72 -195 150 -171 163 -285 210 -371 152z m131 -32 l35 -13 -63 -1 c-72 -1
-122 -21 -152 -59 -24 -30 -26 -22 -5 19 32 61 108 84 185 54z"/>
<path d="M2211 2044 c0 -11 3 -14 6 -6 3 7 2 16 -1 19 -3 4 -6 -2 -5 -13z"/>
<path d="M3891 2014 c0 -11 3 -14 6 -6 3 7 2 16 -1 19 -3 4 -6 -2 -5 -13z"/>
<path d="M3990 2020 c8 -5 20 -10 25 -10 6 0 3 5 -5 10 -8 5 -19 10 -25 10 -5
0 -3 -5 5 -10z"/>
<path d="M4050 1995 c14 -8 30 -14 35 -14 6 0 -1 6 -15 14 -14 8 -29 14 -35
14 -5 0 1 -6 15 -14z"/>
<path d="M4586 1995 c-9 -26 -7 -32 5 -12 6 10 9 21 6 23 -2 3 -7 -2 -11 -11z"/>
<path d="M5769 1993 c-13 -16 -12 -17 4 -4 9 7 17 15 17 17 0 8 -8 3 -21 -13z"/>
<path d="M6120 1991 c0 -11 -2 -25 -5 -33 -3 -7 5 -19 17 -27 22 -13 22 -13 8
4 -8 9 -13 30 -12 46 2 16 1 29 -2 29 -3 0 -6 -9 -6 -19z"/>
<path d="M2150 1974 c0 -6 7 -19 16 -30 14 -18 14 -18 3 6 -14 31 -19 36 -19
24z"/>
<path d="M3885 1970 c3 -5 8 -10 11 -10 2 0 4 5 4 10 0 6 -5 10 -11 10 -5 0
-7 -4 -4 -10z"/>
<path d="M5968 1973 c7 -3 16 -2 19 1 4 3 -2 6 -13 5 -11 0 -14 -3 -6 -6z"/>
<path d="M6038 1973 c7 -3 16 -2 19 1 4 3 -2 6 -13 5 -11 0 -14 -3 -6 -6z"/>
<path d="M2364 1955 c16 -60 26 -114 27 -150 1 -29 3 -33 6 -15 6 30 -14 149
-28 170 -8 12 -9 11 -5 -5z"/>
<path d="M5735 1950 c-3 -5 -25 -11 -48 -12 -37 -1 -38 -2 -9 -5 35 -5 40 -14
17 -33 -8 -7 -15 -16 -15 -21 0 -4 13 4 28 19 15 15 26 29 25 31 -2 2 2 10 8
18 6 7 9 13 6 13 -3 0 -9 -4 -12 -10z"/>
<path d="M3398 1940 c6 -8 12 -29 12 -46 0 -18 5 -36 10 -39 6 -3 10 -15 10
-25 0 -20 19 -21 68 -5 19 6 22 13 18 31 -5 18 -2 24 10 24 14 0 15 2 3 17
-11 13 -11 17 -1 20 30 11 7 19 -50 18 -35 -1 -70 4 -78 9 -12 8 -13 8 -2 -4z"/>
<path d="M3704 1940 c-66 -27 -85 -120 -35 -171 48 -48 121 -37 121 18 0 24
-33 48 -56 39 -16 -6 -19 -35 -4 -37 6 -1 16 -2 23 -3 6 0 12 -8 12 -16 0 -10
-10 -15 -30 -15 -23 0 -33 7 -44 29 -12 26 -12 33 0 55 8 14 27 32 41 39 43
20 75 1 105 -64 47 -103 120 -124 272 -75 99 31 203 41 216 21 4 -6 -7 -10
-25 -10 -44 0 -86 -24 -152 -86 -46 -44 -63 -54 -92 -54 -43 0 -63 27 -46 61
14 25 63 23 68 -3 3 -14 -1 -16 -15 -11 -14 5 -15 3 -6 -7 15 -16 33 -5 33 21
0 30 -43 46 -74 26 -38 -25 -43 -55 -13 -85 27 -26 80 -33 100 -13 18 18 27
12 27 -16 0 -36 33 -90 64 -104 49 -23 106 15 91 61 -8 24 -42 35 -60 20 -19
-16 -19 -34 1 -51 14 -11 18 -10 30 6 12 16 14 16 14 2 0 -43 -77 -40 -100 4
-18 33 -3 123 26 158 69 82 209 59 279 -47 40 -61 68 -183 62 -271 -7 -95 -22
-111 -31 -32 -13 118 -70 242 -129 282 -30 21 -30 21 7 -17 49 -50 81 -121
101 -226 36 -193 42 -224 50 -242 7 -16 5 -17 -16 -11 -13 4 -34 17 -47 29
-20 19 -21 26 -12 50 5 15 9 39 9 54 -1 21 -4 18 -12 -15 -5 -24 -13 -43 -17
-43 -3 0 -14 16 -23 35 -9 20 -32 45 -51 56 -47 27 -83 101 -67 135 7 16 19
24 36 24 40 0 29 18 -16 25 -43 7 -59 -2 -59 -36 0 -15 -4 -15 -37 2 -39 20
-79 24 -101 11 -10 -7 -10 -16 0 -48 13 -39 23 -45 89 -59 15 -2 37 -14 50
-26 26 -22 22 -22 -42 4 -34 14 -73 3 -88 -25 -16 -30 10 -99 37 -97 16 1 16
2 0 6 -42 11 6 51 72 60 33 5 40 3 40 -11 0 -16 1 -16 16 -2 36 37 84 14 133
-63 23 -35 46 -57 78 -72 43 -21 49 -21 87 -8 50 17 98 84 124 171 15 51 27
69 91 130 100 97 131 174 102 251 -11 28 -49 67 -65 67 -6 0 1 -10 16 -23 30
-24 48 -64 48 -106 0 -36 -37 -91 -109 -162 l-56 -56 -12 69 c-13 81 -50 144
-90 154 -37 10 -57 -7 -61 -49 -5 -62 26 -94 76 -76 26 10 29 37 6 65 -15 18
-15 18 -5 -3 14 -29 4 -53 -23 -53 -31 0 -46 19 -46 56 0 43 23 61 55 44 44
-24 59 -58 63 -153 l5 -89 -36 -36 c-19 -20 -44 -52 -55 -70 l-19 -33 -12 121
c-17 172 -58 305 -108 356 -10 10 -18 22 -18 28 -1 6 -7 10 -14 8 -8 -2 -11 3
-8 12 9 22 -117 135 -210 190 -7 4 -13 5 -13 3 0 -2 24 -20 54 -40 76 -51 127
-97 119 -110 -3 -5 -1 -7 4 -4 6 4 19 -3 29 -15 19 -20 19 -21 -6 -13 -14 4
-41 15 -60 25 -61 31 -94 32 -202 11 -97 -20 -107 -20 -163 -6 -72 19 -112 49
-154 114 -40 62 -85 82 -137 61z m959 -716 c-14 -25 -27 -43 -30 -40 -6 6 38
86 48 86 4 0 -4 -20 -18 -46z"/>
<path d="M3920 1900 c6 -11 13 -20 16 -20 2 0 0 9 -6 20 -6 11 -13 20 -16 20
-2 0 0 -9 6 -20z"/>
<path d="M4698 1903 c7 -3 16 -2 19 1 4 3 -2 6 -13 5 -11 0 -14 -3 -6 -6z"/>
<path d="M5766 1900 c6 -8 13 -21 15 -28 3 -10 10 -7 24 10 11 13 13 17 5 11
-11 -10 -18 -9 -34 5 -14 11 -17 12 -10 2z"/>
<path d="M5955 1886 c-26 -12 -27 -15 -12 -21 13 -6 15 -11 6 -21 -12 -15 -4
-34 16 -34 8 0 11 -7 8 -19 -3 -12 2 -20 15 -23 14 -4 28 5 51 35 38 49 39 70
6 85 -33 15 -52 14 -90 -2z"/>
<path d="M4551 1874 c0 -11 3 -14 6 -6 3 7 2 16 -1 19 -3 4 -6 -2 -5 -13z"/>
<path d="M5739 1833 l-24 -28 28 24 c15 14 27 26 27 28 0 8 -8 1 -31 -24z"/>
<path d="M6146 1838 c-28 -39 -12 -81 32 -85 19 -2 22 2 22 33 0 37 -15 74
-30 74 -5 0 -16 -10 -24 -22z"/>
<path d="M2020 1833 c0 -6 8 -17 18 -24 16 -13 16 -13 2 6 -8 11 -16 22 -17
24 -2 2 -3 0 -3 -6z"/>
<path d="M4310 1827 c0 -3 17 -17 38 -33 30 -23 33 -24 17 -5 -19 22 -55 46
-55 38z"/>
<path d="M5811 1814 c0 -11 3 -14 6 -6 3 7 2 16 -1 19 -3 4 -6 -2 -5 -13z"/>
<path d="M831 1800 c-107 -29 -149 -57 -290 -200 -87 -88 -155 -147 -220 -189
-51 -34 -96 -61 -100 -61 -4 0 -14 14 -22 32 -17 38 -59 56 -96 39 -20 -9 -24
-17 -21 -43 9 -94 157 -67 331 60 79 58 85 60 48 13 -27 -33 -30 -41 -14 -33
39 21 81 71 121 144 37 67 66 103 100 122 7 4 -1 -15 -19 -44 -36 -59 -34 -76
4 -26 31 39 141 116 207 143 34 13 70 18 145 18 91 0 109 -4 192 -36 99 -39
114 -35 30 8 -139 70 -269 88 -396 53z"/>
<path d="M2996 1804 c-12 -30 -6 -54 12 -54 25 0 42 19 42 47 0 18 -6 23 -24
23 -13 0 -27 -7 -30 -16z"/>
<path d="M4058 1813 c7 -3 16 -2 19 1 4 3 -2 6 -13 5 -11 0 -14 -3 -6 -6z"/>
<path d="M4542 1800 c0 -14 2 -19 5 -12 2 6 2 18 0 25 -3 6 -5 1 -5 -13z"/>
<path d="M4125 1799 c22 -4 54 -8 70 -7 22 0 19 3 -15 9 -60 10 -108 9 -55 -2z"/>
<path d="M4630 1793 c0 -12 11 -34 23 -49 21 -24 32 -28 88 -30 l64 -3 -53 9
c-70 13 -91 25 -107 63 -12 26 -14 28 -15 10z"/>
<path d="M5674 1778 l-29 -33 33 29 c17 17 32 31 32 33 0 8 -8 1 -36 -29z"/>
<path d="M2290 1791 c0 -6 4 -13 10 -16 6 -3 7 1 4 9 -7 18 -14 21 -14 7z"/>
<path d="M2057 1780 c5 -8 10 -30 10 -48 0 -20 8 -41 21 -55 12 -13 22 -32 22
-43 0 -16 3 -15 26 9 16 17 32 26 41 23 12 -5 14 -1 9 18 -4 16 -1 26 10 30
12 5 9 12 -17 37 -27 27 -37 31 -70 26 -21 -3 -43 0 -50 7 -10 9 -11 8 -2 -4z"/>
<path d="M5745 1769 c-5 -13 -2 -25 6 -30 17 -10 39 8 39 32 0 27 -37 25 -45
-2z"/>
<path d="M2925 1751 c-8 -26 4 -51 26 -51 22 0 27 38 7 58 -17 17 -26 15 -33
-7z"/>
<path d="M5821 1754 c0 -11 3 -14 6 -6 3 7 2 16 -1 19 -3 4 -6 -2 -5 -13z"/>
<path d="M2276 1732 c10 -19 32 -48 47 -65 20 -23 18 -17 -9 23 -46 67 -64 87
-38 42z"/>
<path d="M2402 1740 c0 -14 2 -19 5 -12 2 6 2 18 0 25 -3 6 -5 1 -5 -13z"/>
<path d="M6390 1754 c0 -3 7 -12 15 -21 9 -9 13 -24 10 -37 -4 -15 -1 -13 10
7 13 22 14 31 4 43 -11 14 -39 20 -39 8z"/>
<path d="M2325 1720 c9 -16 18 -30 21 -30 2 0 -2 14 -11 30 -9 17 -18 30 -21
30 -2 0 2 -13 11 -30z"/>
<path d="M1021 1716 c-10 -12 -9 -20 4 -40 14 -21 24 -25 56 -24 44 1 49 13
18 52 -22 29 -60 34 -78 12z"/>
<path d="M2995 1707 l-27 -23 23 -1 c25 -2 62 24 53 38 -8 14 -21 11 -49 -14z"/>
<path d="M5796 1711 c-11 -18 -1 -63 16 -72 21 -12 48 13 48 46 0 30 -50 50
-64 26z"/>
<path d="M6340 1696 c0 -9 8 -14 20 -13 24 2 21 21 -3 25 -10 2 -17 -3 -17
-12z"/>
<path d="M2359 1663 c6 -12 32 -44 58 -71 34 -34 38 -37 13 -8 -19 23 -46 55
-58 71 -14 18 -19 21 -13 8z"/>
<path d="M790 1643 c0 -44 112 -67 127 -26 11 28 -26 52 -78 51 -45 -1 -49 -4
-49 -25z"/>
<path d="M2917 1654 c-9 -10 12 -34 30 -34 19 0 12 34 -8 38 -8 1 -18 0 -22
-4z"/>
<path d="M4777 1653 c-12 -11 -8 -30 7 -30 8 0 11 8 8 19 -5 20 -6 21 -15 11z"/>
<path d="M6207 1636 c-34 -16 -47 -17 -110 -8 -80 12 -133 4 -197 -28 -59 -30
-55 -39 8 -17 51 17 66 18 143 8 122 -16 135 -14 170 17 42 37 34 52 -14 28z"/>
<path d="M5484 1634 c-18 -14 -18 -15 4 -4 12 6 22 13 22 15 0 8 -5 6 -26 -11z"/>
<path d="M1019 1621 c-57 -18 -164 -74 -174 -92 -4 -5 -19 -9 -34 -9 -32 0
-61 -28 -86 -83 -10 -22 -29 -44 -42 -50 -29 -13 -30 -29 0 -25 18 2 23 -2 25
-26 l4 -28 23 22 c15 14 25 18 30 11 10 -17 25 -13 25 7 0 10 9 36 20 57 11
22 23 57 27 78 5 33 13 42 62 70 84 49 136 67 196 67 66 0 92 -9 141 -52 27
-22 33 -25 19 -8 -34 42 -59 58 -102 69 -54 14 -67 13 -134 -8z"/>
<path d="M2400 1575 c30 -30 57 -55 59 -55 3 0 -19 25 -49 55 -30 30 -57 55
-59 55 -3 0 19 -25 49 -55z"/>
<path d="M2600 1605 c14 -16 32 -35 40 -43 22 -19 130 -70 165 -77 17 -3 -5 8
-47 25 -48 19 -97 49 -130 78 -30 26 -42 33 -28 17z"/>
<path d="M6469 1603 c13 -3 26 -13 28 -24 6 -21 18 -25 28 -9 11 19 -16 40
-49 39 -25 -1 -27 -3 -7 -6z"/>
<path d="M1034 1575 c-33 -33 -28 -60 11 -60 22 0 35 8 52 34 13 19 22 35 21
36 -2 1 -15 5 -31 9 -21 5 -33 1 -53 -19z"/>
<path d="M3020 1575 c0 -17 5 -25 13 -22 6 2 12 12 12 22 0 10 -6 20 -12 23
-8 2 -13 -6 -13 -23z"/>
<path d="M2917 1584 c-4 -4 -7 -11 -7 -16 0 -13 50 -6 53 7 2 12 -36 19 -46 9z"/>
<path d="M6400 1565 c0 -3 11 -10 25 -15 21 -8 24 -14 19 -35 -5 -21 -3 -25
15 -25 29 0 28 44 -1 64 -21 15 -58 22 -58 11z"/>
<path d="M7174 1552 c4 -7 1 -12 -9 -12 -11 0 -15 -5 -12 -15 4 -8 1 -17 -4
-21 -7 -4 -7 -10 -1 -16 6 -6 9 -16 6 -22 -3 -7 12 -12 40 -14 46 -2 76 15 76
44 0 18 -36 54 -54 54 -8 0 -22 3 -32 7 -12 4 -15 3 -10 -5z"/>
<path d="M2967 1544 c-3 -4 -4 -11 -1 -15 7 -12 54 -11 54 1 0 6 -4 10 -9 10
-5 0 -16 2 -23 5 -8 3 -17 3 -21 -1z"/>
<path d="M6674 1535 c3 -8 -4 -21 -16 -29 -19 -13 -19 -16 -5 -21 8 -4 13 -13
11 -20 -7 -18 49 -29 76 -15 25 13 25 59 0 70 -8 4 -25 12 -37 18 -30 16 -36
15 -29 -3z"/>
<path d="M874 1515 c-12 -18 -15 -39 -11 -71 6 -53 11 -61 32 -44 33 28 41
140 9 140 -7 0 -21 -11 -30 -25z"/>
<path d="M5704 1491 c118 -62 205 -89 324 -100 95 -9 131 -23 102 -41 -20 -12
2 -35 24 -27 18 7 22 42 6 52 -54 34 89 30 181 -4 88 -33 133 -94 109 -150
-14 -35 -50 -55 -84 -49 -14 3 -23 1 -20 -3 9 -15 88 -10 112 7 21 15 22 14
22 -14 0 -60 92 -93 106 -38 10 42 -4 66 -38 66 -23 0 -29 -4 -24 -16 3 -9 6
-18 6 -20 0 -2 5 -4 11 -4 8 0 7 6 -2 16 -12 14 -11 16 5 13 10 -2 24 -12 30
-21 15 -25 -13 -53 -43 -43 -34 10 -42 47 -29 123 10 62 9 71 -11 117 -30 67
-2 41 53 -52 47 -78 86 -107 162 -123 46 -10 55 -15 60 -37 5 -20 2 -31 -16
-45 -25 -20 -19 -24 11 -8 26 14 25 64 -1 83 -11 8 -18 16 -16 18 2 2 -15 4
-38 4 -56 0 -113 38 -145 96 l-24 44 54 -51 c57 -54 97 -79 107 -70 3 3 0 6
-8 6 -7 0 -55 43 -106 95 -51 52 -113 104 -136 117 l-43 22 30 6 c20 5 6 7
-42 8 -48 1 -101 -7 -160 -23 -160 -45 -292 -31 -495 51 -59 24 -113 44 -118
44 -6 0 32 -22 84 -49z m702 -70 c24 -11 50 -33 62 -53 24 -38 30 -112 10
-124 -8 -5 -9 0 -6 14 4 12 2 22 -3 22 -5 0 -9 6 -9 13 0 16 -45 59 -80 78
-14 7 -50 19 -80 26 l-55 13 62 -5 c70 -5 128 -26 150 -53 13 -15 13 -15 3 5
-14 29 -40 43 -120 64 l-65 17 45 1 c25 0 63 -8 86 -18z"/>
<path d="M1276 1517 c3 -10 9 -15 12 -12 3 3 0 11 -7 18 -10 9 -11 8 -5 -6z"/>
<path d="M3090 1511 c0 -5 9 -19 19 -32 18 -22 20 -22 26 -6 4 9 2 24 -5 32
-14 16 -40 20 -40 6z"/>
<path d="M3034 1469 c-7 -12 15 -31 31 -26 6 2 11 11 13 20 4 19 -32 24 -44 6z"/>
<path d="M2918 1463 c7 -3 16 -2 19 1 4 3 -2 6 -13 5 -11 0 -14 -3 -6 -6z"/>
<path d="M2978 1453 c7 -3 16 -2 19 1 4 3 -2 6 -13 5 -11 0 -14 -3 -6 -6z"/>
<path d="M6478 1453 c7 -3 16 -2 19 1 4 3 -2 6 -13 5 -11 0 -14 -3 -6 -6z"/>
<path d="M6769 1443 c0 -5 -2 -15 -4 -24 -5 -25 40 -42 60 -23 21 21 3 54 -30
54 -14 0 -25 -3 -26 -7z"/>
<path d="M3166 1399 c27 -17 51 -35 52 -40 2 -5 9 -9 15 -9 19 0 -37 51 -72
66 -51 21 -50 17 5 -17z"/>
<path d="M6877 1402 c3 -12 9 -25 14 -28 14 -8 11 10 -6 32 -13 18 -14 18 -8
-4z"/>
<path d="M7049 1391 c-8 -9 -13 -20 -11 -25 2 -6 -5 -16 -15 -24 -15 -11 -16
-14 -4 -22 12 -7 12 -11 2 -24 -12 -14 -9 -16 28 -16 50 0 81 14 81 37 0 8
-15 32 -33 52 -30 33 -35 35 -48 22z"/>
<path d="M7157 1398 c-9 -28 5 -48 34 -48 34 0 37 12 9 40 -23 23 -37 25 -43
8z"/>
<path d="M6832 1343 c4 -22 43 -25 43 -3 0 8 -11 16 -23 18 -19 3 -23 0 -20
-15z"/>
<path d="M7305 1274 c-19 -20 -16 -56 5 -61 12 -4 12 -3 2 5 -8 5 -12 18 -10
28 2 14 12 19 38 19 26 0 34 -4 32 -15 -2 -8 0 -12 4 -8 23 23 44 -44 27 -87
-5 -14 -8 -12 -19 11 l-12 29 -1 -26 c-1 -27 -30 -75 -31 -50 0 8 -7 5 -18 -9
-10 -12 -36 -26 -58 -30 l-39 -8 46 -1 c126 -3 211 118 137 196 -26 27 -79 31
-103 7z"/>
<path d="M6881 1247 c-13 -21 -12 -21 5 -5 10 10 16 20 13 22 -3 3 -11 -5 -18
-17z"/>
<path d="M6329 1244 c-8 -10 -9 -15 -3 -11 7 4 14 -2 17 -14 8 -30 42 -21 42
11 0 31 -35 39 -56 14z"/>
<path d="M7339 1193 c-13 -16 -12 -17 4 -4 16 13 21 21 13 21 -2 0 -10 -8 -17
-17z"/>
<path d="M5449 1171 c9 -6 11 -16 7 -27 -6 -15 -4 -16 5 -7 14 14 5 43 -13 43
-10 0 -9 -3 1 -9z"/>
<path d="M6701 1131 c-10 -6 -9 -10 3 -14 8 -3 18 -2 21 3 8 13 -9 20 -24 11z"/>
<path d="M6985 1110 c11 -5 29 -8 40 -8 16 0 15 2 -5 8 -34 11 -60 11 -35 0z"/>
<path d="M7063 1093 c9 -2 23 -2 30 0 6 3 -1 5 -18 5 -16 0 -22 -2 -12 -5z"/>
<path d="M7158 1093 c7 -3 16 -2 19 1 4 3 -2 6 -13 5 -11 0 -14 -3 -6 -6z"/>
</g>
</svg>
