
<svg xmlns="http://www.w3.org/2000/svg"
 width="442.000000pt" height="375.000000pt" viewBox="0 0 442.000000 375.000000"
 preserveAspectRatio="xMidYMid meet">

<g transform="translate(0.000000,375.000000) scale(0.100000,-0.100000)"
fill="#C4BAA6" stroke="none">
<path d="M604 3725 c-19 -30 -15 -87 12 -150 l16 -40 24 45 c29 56 40 121 25
149 -16 29 -56 27 -77 -4z"/>
<path d="M500 3572 c0 -28 28 -61 71 -82 43 -22 48 -16 30 33 -21 55 -101 94
-101 49z"/>
<path d="M671 3535 c-30 -35 -40 -65 -22 -65 41 0 111 51 111 82 0 33 -54 23
-89 -17z"/>
<path d="M622 3432 c-1 -18 -7 -131 -13 -251 -5 -120 -14 -240 -18 -267 -7
-46 -7 -44 -14 46 -18 240 -87 390 -167 365 -32 -10 -54 -50 -40 -74 18 -35
45 -43 70 -23 19 16 21 22 11 40 -13 24 -46 30 -54 9 -3 -8 -1 -20 4 -28 8
-11 9 -10 7 6 -2 12 4 21 15 23 13 3 17 -3 17 -23 0 -23 -4 -26 -27 -23 -25 3
-28 7 -28 38 0 33 2 35 36 38 44 4 68 -21 97 -101 28 -75 62 -320 62 -448 l0
-37 -43 5 c-78 9 -137 -42 -137 -117 0 -39 37 -112 89 -175 46 -56 48 -71 28
-190 -12 -66 -14 -70 -40 -73 -61 -7 -110 54 -87 108 24 59 95 51 95 -11 0
-29 -3 -34 -25 -34 -17 0 -26 7 -32 25 -6 23 -7 23 -5 -5 2 -26 6 -30 34 -33
27 -3 35 1 44 21 18 40 -7 81 -52 85 -30 3 -41 -2 -58 -24 -30 -38 -27 -79 8
-115 22 -21 39 -29 66 -29 l36 0 -7 -37 c-3 -21 -21 -83 -38 -138 l-32 -100
-44 -7 c-153 -26 -243 -192 -167 -307 34 -52 46 -48 18 5 -24 45 -27 113 -7
152 26 50 86 92 152 106 l32 7 -33 -113 c-32 -110 -71 -278 -97 -422 -12 -65
-15 -70 -43 -78 -35 -9 -93 -61 -106 -96 -14 -36 -11 -90 7 -128 16 -34 68
-74 96 -74 12 0 17 -20 22 -88 9 -109 38 -250 66 -322 15 -38 18 -56 10 -58
-7 -3 -28 -18 -47 -35 -119 -104 -87 -277 51 -277 25 0 45 9 68 29 27 24 33
36 33 71 0 30 -6 46 -20 56 -57 42 -118 22 -123 -39 -3 -31 1 -39 22 -49 19
-8 32 -8 48 0 22 11 21 11 -5 6 -33 -7 -57 10 -57 41 0 30 24 48 61 47 43 -1
59 -18 59 -62 0 -30 -6 -44 -31 -64 -35 -30 -67 -33 -109 -11 -61 32 -76 111
-37 186 21 39 76 89 98 89 4 0 19 -21 35 -47 118 -204 337 -305 535 -247 82
25 125 50 195 115 35 32 71 59 81 59 9 0 47 18 83 40 108 65 163 74 251 41 55
-21 89 -47 89 -66 0 -6 -23 -24 -50 -39 l-50 -27 -30 25 c-17 14 -47 28 -66
32 -70 13 -146 -30 -130 -72 9 -23 -5 -16 -42 19 -33 30 -34 30 -17 5 23 -37
79 -70 125 -74 20 -2 61 3 91 10 47 13 57 13 76 0 45 -29 78 -12 105 53 9 22
47 57 113 106 55 40 121 92 147 114 26 23 64 47 84 53 111 37 286 -41 330
-147 47 -111 -24 -243 -131 -243 -65 0 -125 56 -125 118 0 37 43 87 78 90 62
6 107 -72 64 -111 -25 -23 -47 -21 -72 5 -11 12 -20 17 -20 11 0 -19 50 -52
68 -46 57 20 69 79 25 125 -44 46 -108 35 -138 -22 -50 -97 46 -209 155 -180
36 10 88 56 109 97 18 35 13 129 -9 172 -39 78 -159 151 -247 151 -59 0 -27
18 81 45 97 25 265 34 323 19 24 -7 75 -79 94 -133 10 -29 9 -34 -16 -57 -22
-21 -26 -31 -21 -56 6 -30 5 -30 -12 -15 -30 27 -55 21 -76 -18 -12 -22 -31
-39 -53 -47 -18 -7 -33 -16 -33 -20 0 -17 49 -19 85 -3 50 20 67 5 26 -24 -36
-26 -41 -65 -16 -125 l15 -36 41 22 c58 32 74 59 60 99 -14 40 -14 49 0 49 5
0 17 -16 24 -35 15 -35 41 -55 70 -55 14 0 14 3 -1 32 -10 18 -16 51 -15 74 1
46 -17 69 -49 61 -24 -6 -26 5 -5 23 8 7 15 22 15 34 -1 34 -39 138 -66 179
-14 22 -23 41 -21 44 3 3 30 0 60 -7 65 -13 90 -35 142 -125 21 -36 47 -73 58
-82 23 -20 17 -7 -18 42 -12 17 -35 52 -50 79 l-28 49 62 -40 c34 -22 106 -78
159 -125 142 -125 152 -133 247 -192 100 -64 163 -80 275 -74 54 3 89 12 125
30 60 31 161 134 171 174 15 65 163 222 246 263 24 11 74 28 111 37 80 20 82
31 3 14 -113 -23 -240 -112 -329 -230 l-27 -35 0 46 c0 65 -25 139 -65 198
-32 46 -36 59 -36 117 -1 70 22 129 56 148 11 6 39 24 62 39 59 39 144 77 171
77 12 0 22 4 22 10 0 16 -48 23 -82 11 l-33 -11 42 38 c38 33 63 75 63 103 0
18 -65 -23 -102 -64 -36 -41 -37 -41 -26 -11 11 31 5 84 -11 84 -4 0 -13 -25
-20 -56 -8 -34 -29 -80 -57 -120 -24 -35 -44 -68 -44 -73 0 -5 -12 -30 -27
-57 -23 -40 -28 -62 -28 -115 l0 -66 -55 43 c-30 24 -73 61 -95 84 -43 44 -74
56 -34 14 13 -15 70 -64 126 -110 105 -88 132 -125 151 -211 6 -24 9 -43 7
-43 -1 0 -15 18 -31 41 -71 103 -220 131 -285 53 -13 -16 -12 -16 17 -1 130
67 252 -7 279 -170 5 -31 2 -50 -14 -81 -47 -92 -140 -152 -250 -160 -163 -11
-267 45 -552 296 -170 150 -284 192 -519 194 -110 1 -231 -22 -329 -63 l-46
-19 35 30 c19 17 73 49 119 73 83 41 86 42 185 42 96 -1 107 -3 224 -48 89
-34 138 -47 174 -47 29 0 66 -5 85 -12 29 -11 36 -9 62 10 l30 22 3 -33 c3
-30 5 -32 47 -35 36 -3 54 -12 94 -48 49 -44 50 -46 51 -105 1 -54 4 -63 30
-86 26 -22 37 -25 80 -20 45 4 53 1 84 -27 18 -17 43 -36 55 -43 30 -17 120
-16 160 1 79 34 118 122 81 185 -38 65 -116 66 -204 1 -129 -95 -129 -95 -147
-78 -14 15 -14 18 1 39 22 31 20 61 -5 93 -23 30 -71 35 -104 12 -18 -12 -25
-10 -69 30 -47 43 -52 59 -8 28 13 -9 26 -13 29 -10 13 13 -18 57 -52 73 -52
25 -47 46 9 38 56 -9 78 3 109 60 l26 45 -37 16 c-76 32 -97 30 -135 -11 -40
-44 -57 -33 -27 18 14 24 19 43 14 61 -10 41 -22 40 -44 -3 -13 -26 -29 -43
-45 -47 -24 -6 -45 -31 -45 -53 0 -6 10 -19 22 -31 l22 -20 -32 0 c-18 0 -58
13 -90 29 -69 34 -165 66 -250 82 l-63 12 38 25 c49 32 83 63 83 75 0 5 -18
-7 -39 -26 -53 -47 -82 -61 -169 -81 -40 -9 -95 -25 -123 -35 -67 -26 -150
-81 -142 -94 4 -6 1 -7 -6 -2 -7 4 -22 -1 -34 -12 -50 -43 -52 -40 -20 25 18
37 38 94 44 127 6 33 20 78 30 100 11 22 24 63 29 90 19 89 42 149 72 187 l29
38 -24 0 c-26 0 -45 -17 -71 -65 -17 -30 -17 -29 -10 39 5 54 2 77 -12 107 -9
22 -20 39 -25 39 -18 0 -37 -90 -32 -152 l5 -63 -24 45 c-15 29 -33 48 -50 54
-41 14 -44 1 -10 -38 47 -54 84 -192 85 -327 1 -51 -43 -201 -62 -213 -3 -2
-4 18 -3 44 7 97 -56 170 -154 178 -52 4 -55 3 -94 -36 -32 -32 -40 -47 -40
-76 0 -71 43 -116 110 -116 57 0 94 95 52 133 -24 22 -65 21 -85 -1 -18 -20
-23 -62 -8 -62 5 0 7 8 4 19 -6 22 21 51 47 51 24 0 50 -26 50 -50 0 -89 -101
-109 -144 -28 -18 31 -18 40 -7 77 30 103 161 107 235 7 25 -33 28 -134 6
-181 -14 -28 -110 -105 -266 -215 l-71 -49 -24 37 c-53 80 -211 96 -343 34
-37 -17 -70 -32 -71 -32 -2 0 5 22 16 50 10 27 22 76 25 107 4 32 11 61 16 64
5 3 20 50 34 103 26 106 45 152 74 184 24 25 25 32 6 32 -22 0 -66 -40 -81
-74 -13 -29 -14 -27 -9 44 4 60 1 83 -14 115 l-20 40 -16 -37 c-10 -22 -16
-66 -17 -110 0 -59 -2 -68 -10 -48 -16 39 -50 70 -77 70 l-25 0 21 -23 c33
-36 71 -127 78 -192 4 -33 13 -74 21 -92 12 -27 13 -44 3 -100 -6 -37 -17 -79
-24 -92 -13 -23 -13 -23 -20 20 -13 88 -66 142 -139 142 -64 0 -100 -21 -116
-70 -29 -81 26 -176 108 -189 23 -4 41 -12 41 -19 0 -7 -21 -32 -46 -55 -44
-40 -49 -42 -95 -38 -65 7 -176 62 -282 142 -47 36 -99 72 -116 80 -29 15 -31
20 -31 69 0 56 27 127 63 165 67 72 178 69 236 -4 41 -51 17 -134 -45 -160
-32 -14 -39 -13 -72 3 -53 26 -57 86 -7 119 23 15 27 15 50 0 29 -19 32 -42 8
-68 -9 -10 -11 -18 -5 -18 14 0 32 33 32 59 0 22 -35 51 -63 51 -45 0 -81 -72
-61 -125 7 -18 55 -45 79 -45 31 0 81 30 98 59 52 88 -12 187 -123 194 -22 1
-40 3 -40 3 0 2 72 108 95 140 6 9 6 24 -2 44 -10 28 -2 43 12 20 9 -14 41
-12 53 3 6 7 13 26 16 41 3 16 17 41 31 56 14 14 25 29 25 33 0 18 -53 4 -83
-23 -19 -16 -37 -30 -41 -30 -12 0 -6 22 14 47 29 37 25 65 -14 112 l-34 41
-36 -40 c-39 -43 -47 -88 -21 -110 18 -15 20 -40 3 -40 -7 0 -23 11 -37 24
-25 24 -41 30 -71 27 -10 -1 -7 -9 12 -26 26 -24 33 -39 40 -90 4 -24 56 -34
69 -13 7 10 9 9 9 -4 0 -9 -5 -20 -10 -23 -15 -9 -12 -47 5 -71 13 -19 12 -25
-15 -67 -16 -25 -46 -57 -67 -70 -46 -30 -64 -50 -91 -102 l-21 -40 6 40 c3
22 17 76 32 120 32 101 36 231 7 317 -18 55 -18 57 0 88 25 41 95 95 169 129
33 15 71 33 85 40 l25 11 -27 -5 c-70 -13 -175 -74 -239 -138 l-48 -48 -38 30
c-21 16 -55 37 -75 45 -35 15 -36 17 -28 46 22 78 238 450 261 450 17 0 39
-107 40 -199 1 -66 4 -87 9 -66 19 73 11 158 -25 273 -6 19 1 32 44 73 28 27
56 47 62 44 5 -4 44 14 87 38 83 48 158 77 197 77 32 0 32 14 0 28 -18 9 -35
8 -70 -2 -25 -8 -45 -13 -45 -11 0 2 22 19 50 39 53 38 75 66 86 109 l6 28
-38 -16 c-22 -9 -63 -39 -93 -68 -48 -47 -52 -49 -37 -20 20 39 21 97 2 112
-12 10 -15 4 -21 -31 -10 -57 -43 -122 -99 -190 -25 -31 -46 -63 -46 -70 0 -8
-22 -35 -49 -62 l-49 -48 -46 46 -45 46 38 108 c21 59 55 179 76 267 74 325
112 415 175 415 27 0 53 21 63 50 3 11 8 7 16 -12 12 -32 45 -37 77 -13 10 8
38 15 62 15 23 0 42 4 42 8 0 20 -38 41 -80 44 -44 3 -59 20 -23 26 67 11 77
24 86 107 l4 40 -58 -5 c-66 -6 -78 -15 -88 -61 -10 -49 -31 -49 -31 0 0 27
-7 48 -24 67 l-23 28 1 -45 c1 -31 -6 -53 -22 -75 -27 -35 -21 -61 14 -70 24
-6 24 -7 -8 -23 -20 -10 -37 -28 -43 -46 -6 -16 -22 -50 -38 -75 -15 -25 -37
-76 -49 -115 l-23 -70 -6 90 c-7 99 -26 156 -66 197 -24 25 -25 32 -20 88 7
61 47 140 72 140 6 0 46 38 88 84 50 55 94 93 127 109 35 18 45 27 34 31 -32
12 -63 5 -93 -20 -40 -33 -39 -25 3 37 33 47 57 131 42 146 -13 13 -85 -70
-104 -121 l-21 -51 0 38 c-1 39 -15 76 -35 89 -21 14 -24 8 -14 -34 11 -51 -4
-152 -33 -217 -10 -24 -19 -55 -19 -70 0 -14 -10 -37 -21 -51 l-21 -25 6 25
c8 41 28 481 24 530 -4 35 -5 38 -6 12z m-63 -721 c12 -8 12 -27 2 -128 -7
-66 -16 -134 -20 -152 l-6 -34 -37 45 c-74 90 -99 158 -79 211 19 49 101 83
140 58z m82 -84 c18 -42 23 -75 27 -172 3 -111 1 -131 -31 -265 -20 -80 -51
-188 -70 -240 -38 -103 -43 -107 -109 -81 l-28 10 29 81 c16 44 35 106 42 137
10 46 21 66 51 94 45 43 50 86 18 150 -20 39 -20 42 -4 187 9 81 18 153 20
161 7 22 29 -3 55 -62z m-64 -348 c4 -40 2 -47 -27 -74 l-33 -30 6 35 c4 19 9
59 13 88 6 47 9 52 22 39 8 -8 16 -35 19 -58z m-62 -451 c2 -2 -20 -77 -50
-166 -48 -142 -74 -231 -115 -390 -10 -39 -13 -42 -38 -36 -15 4 -28 7 -29 8
-1 1 9 62 23 136 27 149 52 252 90 379 l25 83 45 -5 c25 -2 47 -6 49 -9z m62
-50 c18 -18 33 -38 33 -45 0 -8 -18 -37 -39 -66 -22 -29 -71 -108 -110 -177
-39 -69 -71 -121 -71 -115 0 13 88 300 109 355 10 25 21 53 24 63 9 24 16 22
54 -15z m-240 -562 c1 -1 -4 -22 -10 -49 -9 -41 -13 -46 -31 -41 -29 9 -28 7
-21 58 7 43 9 45 34 40 14 -4 27 -7 28 -8z m-75 -43 c-3 -27 -9 -50 -15 -52
-20 -8 -47 -42 -47 -60 0 -10 9 -29 21 -42 19 -23 20 -23 10 -2 -16 31 -13 69
4 83 9 7 17 11 18 9 1 -2 1 -41 -1 -86 -4 -91 -7 -95 -60 -63 -85 52 -79 186
11 240 54 33 65 28 59 -27z m207 -26 l23 -26 -21 -30 c-93 -130 -136 -371 -96
-536 19 -79 18 -85 -4 -85 -14 0 -26 15 -42 58 -20 50 -24 79 -27 229 l-4 173
31 26 c26 21 31 33 31 68 0 23 -7 52 -16 64 -13 19 -14 31 -4 77 l11 55 47
-24 c26 -13 58 -35 71 -49z m-170 -36 c10 -7 12 -23 7 -67 -11 -85 -16 -104
-32 -104 -16 0 -17 25 -8 119 7 63 9 67 33 52z m51 -86 c0 -32 -23 -75 -35
-64 -3 4 -3 35 1 70 6 55 8 60 20 44 8 -10 14 -33 14 -50z m181 12 c22 -78 15
-193 -16 -287 -23 -69 -28 -104 -29 -186 l-1 -100 -30 6 c-24 5 -32 13 -42 45
-18 63 -15 238 7 337 21 97 77 241 91 233 5 -3 14 -25 20 -48z m-242 -214 c0
-124 -13 -113 -22 20 -5 72 -4 87 8 87 12 0 15 -20 14 -107z m2228 -37 c79
-17 145 -38 220 -72 l53 -23 -18 -31 c-17 -31 -18 -32 -77 -27 -37 3 -102 22
-170 48 -106 42 -114 43 -220 43 -92 0 -118 -4 -160 -22 -70 -31 -28 2 50 39
122 58 205 69 322 45z m-1432 -220 c49 -21 75 -68 75 -137 0 -44 -4 -58 -16
-63 -23 -9 -25 -4 -14 35 14 46 4 84 -27 109 -53 42 -133 13 -133 -47 0 -58
79 -89 101 -39 21 45 -26 87 -59 54 -14 -14 -16 -38 -3 -38 5 0 11 9 14 21 7
27 31 20 35 -10 5 -31 -11 -45 -42 -37 -56 14 -36 106 23 106 46 0 81 -35 81
-80 0 -22 -5 -51 -12 -65 -10 -22 -17 -25 -61 -25 -42 0 -54 5 -83 34 -30 30
-34 40 -34 86 0 44 4 56 29 81 33 33 71 37 126 15z m2109 -82 c23 -22 30 -62
16 -79 -16 -19 -29 -19 -52 2 -24 21 -23 32 5 44 18 8 15 8 -15 4 -43 -7 -61
11 -33 32 25 18 60 17 79 -3z m320 -24 c54 -20 69 -103 30 -159 -34 -48 -144
-76 -206 -52 -13 5 -40 24 -61 42 l-38 34 71 55 c105 82 151 100 204 80z
m-3084 -52 c34 -70 136 -177 201 -211 68 -35 45 -36 -26 -1 -74 37 -155 111
-204 189 -23 35 -41 67 -41 70 0 3 10 5 23 5 17 0 28 -13 47 -52z m44 46 c9
-4 28 -32 43 -62 69 -147 233 -232 387 -202 80 16 106 30 154 86 26 31 45 45
58 42 16 -3 12 -10 -25 -46 -52 -51 -145 -98 -223 -113 -52 -11 -64 -9 -120
11 -143 51 -268 159 -308 265 -10 26 0 32 34 19z m2650 -39 c4 -14 21 -31 43
-42 48 -23 50 -47 5 -51 -45 -4 -92 42 -92 91 0 18 3 37 7 40 10 10 30 -11 37
-38z m-2500 -49 c82 -64 170 -116 241 -143 l60 -22 -77 0 c-96 -1 -168 24
-233 81 -40 35 -105 128 -105 151 0 12 50 -17 114 -67z m793 -77 c24 -11 43
-25 43 -29 0 -13 -104 -32 -134 -24 -20 5 -26 12 -26 33 0 15 3 31 7 34 13 14
68 7 110 -14z m191 -11 c-21 -31 -42 -42 -64 -34 -16 6 -12 11 26 31 56 30 56
30 38 3z"/>
<path d="M900 1457 c-32 -16 -77 -101 -56 -105 21 -5 74 25 86 47 12 23 14 71
3 71 -5 0 -19 -6 -33 -13z"/>
<path d="M651 1394 c0 -11 3 -14 6 -6 3 7 2 16 -1 19 -3 4 -6 -2 -5 -13z"/>
<path d="M953 1360 c-24 -11 -43 -23 -43 -29 0 -14 88 -41 135 -41 46 0 65 13
65 45 0 12 -5 26 -12 33 -18 18 -97 13 -145 -8z"/>
<path d="M830 1315 c0 -38 64 -115 96 -115 19 0 18 40 -2 68 -21 31 -94 67
-94 47z"/>
<path d="M2686 1161 c-20 -22 -56 -113 -56 -142 0 -20 0 -20 41 3 79 44 120
113 87 146 -18 18 -53 15 -72 -7z"/>
<path d="M3234 1116 c-14 -23 -14 -28 2 -61 15 -33 95 -105 115 -105 25 0 -22
153 -54 175 -30 21 -44 19 -63 -9z"/>
<path d="M2537 1103 c-14 -14 -6 -79 14 -112 26 -43 44 -29 44 33 0 54 -36
102 -58 79z"/>
<path d="M3410 1018 c-21 -23 -29 -101 -11 -113 18 -10 61 60 61 98 0 43 -18
49 -50 15z"/>
<path d="M2628 962 c-34 -20 -35 -28 -5 -36 42 -11 104 -6 117 9 33 40 -57 62
-112 27z"/>
<path d="M3236 927 c-19 -14 -19 -14 3 -36 18 -18 31 -21 73 -19 59 3 68 15
32 41 -34 25 -85 32 -108 14z"/>
<path d="M4191 804 c-23 -16 -51 -70 -51 -98 0 -23 37 -7 71 31 46 53 31 102
-20 67z"/>
<path d="M33 765 c-25 -18 -30 -44 -11 -63 7 -7 37 -12 68 -12 44 0 61 -4 75
-20 26 -29 29 -18 7 27 -36 70 -95 99 -139 68z"/>
<path d="M4285 731 c-22 -10 -49 -26 -60 -34 -18 -14 -17 -16 35 -31 68 -20
109 -20 138 0 43 30 17 84 -41 84 -18 0 -50 -9 -72 -19z"/>
<path d="M4140 664 c0 -17 43 -85 59 -94 29 -15 61 -12 61 5 0 22 -28 62 -48
70 -32 13 -72 24 -72 19z"/>
<path d="M124 616 c-14 -37 0 -51 56 -54 32 -2 62 -10 72 -19 33 -30 12 24
-25 65 -24 26 -94 32 -103 8z"/>
<path d="M2820 362 c0 -17 57 -62 85 -67 40 -7 64 8 49 32 -6 10 -22 24 -35
30 -27 14 -99 17 -99 5z"/>
<path d="M2753 318 c-34 -36 -48 -75 -34 -97 22 -34 81 41 81 104 0 33 -10 32
-47 -7z"/>
<path d="M2826 255 c-4 -19 -4 -45 -1 -59 3 -14 7 -37 10 -51 7 -34 48 -60 73
-46 11 6 22 18 26 26 7 20 -15 74 -49 119 -37 49 -52 51 -59 11z"/>
<path d="M3557 126 c-59 -16 -70 -26 -28 -26 26 0 41 -9 70 -40 38 -42 70 -51
91 -25 17 20 5 62 -23 79 -36 23 -59 25 -110 12z"/>
<path d="M449 102 c-26 -23 -31 -34 -25 -55 7 -28 37 -43 60 -30 8 4 25 23 38
42 15 22 36 38 58 44 34 10 34 10 10 17 -58 18 -108 11 -141 -18z"/>
<path d="M621 86 c-31 -32 -25 -70 10 -74 21 -2 31 4 48 32 15 23 32 37 54 42
32 7 32 7 7 15 -53 15 -96 10 -119 -15z"/>
<path d="M3380 88 l-25 -11 32 -7 c18 -4 44 -21 58 -39 15 -17 35 -31 46 -31
41 0 42 67 0 89 -25 14 -78 13 -111 -1z"/>
</g>
</svg>
