
<svg version="1.0" xmlns="http://www.w3.org/2000/svg"
 width="80.000000pt" height="94.000000pt" viewBox="0 0 80.000000 94.000000"
 preserveAspectRatio="xMidYMid meet">

<g transform="translate(0.000000,94.000000) scale(0.100000,-0.100000)"
fill="#C4BAA6" stroke="none">
<path d="M276 798 c-12 -45 -5 -86 19 -122 14 -20 25 -43 25 -51 0 -8 5 -17
12 -21 8 -5 9 0 6 14 -4 15 -2 22 7 22 9 0 12 -9 9 -25 -2 -14 -1 -25 4 -25 4
0 9 12 10 26 2 30 30 56 50 49 7 -3 10 -1 7 5 -10 16 18 50 37 44 28 -8 21 15
-7 26 -14 5 -25 14 -25 19 0 20 -74 61 -111 61 -30 0 -38 -4 -43 -22z m48
-128 c6 -9 1 -5 -11 8 -13 13 -23 28 -23 35 0 7 6 3 12 -8 6 -11 16 -27 22
-35z"/>
<path d="M67 693 c-14 -13 -6 -50 14 -68 l20 -19 -23 -18 c-19 -14 -21 -21
-12 -35 6 -10 24 -21 40 -24 17 -3 28 -11 26 -18 -4 -20 18 -41 42 -41 12 0
27 -5 33 -11 9 -9 18 -8 37 5 14 9 31 16 38 16 8 0 14 15 15 40 2 22 -2 40 -7
40 -5 0 -10 12 -12 28 -2 18 -9 28 -24 30 -13 2 -23 14 -30 35 -11 37 -41 48
-61 21 -12 -17 -14 -17 -36 4 -23 22 -48 28 -60 15z"/>
<path d="M445 690 c3 -5 8 -10 11 -10 2 0 4 5 4 10 0 6 -5 10 -11 10 -5 0 -7
-4 -4 -10z"/>
<path d="M470 690 c0 -5 5 -10 10 -10 6 0 10 5 10 10 0 6 -4 10 -10 10 -5 0
-10 -4 -10 -10z"/>
<path d="M445 660 c4 -6 11 -8 16 -5 14 9 11 15 -7 15 -8 0 -12 -5 -9 -10z"/>
<path d="M386 633 c-4 -9 -1 -21 5 -27 9 -8 10 -7 6 7 -4 9 -2 17 3 17 6 0 10
5 10 10 0 16 -17 11 -24 -7z"/>
<path d="M420 640 c0 -5 5 -10 11 -10 5 0 7 5 4 10 -3 6 -8 10 -11 10 -2 0 -4
-4 -4 -10z"/>
<path d="M430 620 c-21 -17 -22 -20 -7 -20 11 0 30 -9 43 -19 l25 -19 -28 -20
c-46 -32 -111 -62 -134 -62 -12 0 -19 -3 -16 -7 4 -4 -5 -20 -20 -37 l-28 -30
35 29 c41 35 137 81 147 72 13 -13 -17 -57 -57 -82 -39 -25 -50 -47 -30 -60 6
-4 3 -16 -10 -32 -27 -35 -25 -61 5 -73 29 -11 29 -8 10 -53 -21 -51 -6 -91
33 -85 15 3 35 9 45 13 13 5 17 2 17 -14 0 -32 27 -79 48 -86 47 -14 70 24 58
95 -6 39 -6 40 24 40 59 0 60 58 2 107 -21 18 -24 25 -14 35 19 19 14 46 -14
64 -14 9 -23 23 -20 30 6 17 -11 30 -51 39 -48 10 -45 47 7 97 49 46 60 47 60
8 0 -24 4 -30 21 -30 11 0 18 -4 15 -9 -3 -5 -15 -7 -25 -4 -10 3 -21 0 -25
-5 -8 -13 21 -35 38 -29 8 3 22 -4 33 -16 l18 -22 -22 19 c-13 11 -23 15 -23
9 0 -17 64 -45 95 -41 26 3 30 8 33 36 2 23 -4 43 -21 65 -13 18 -26 40 -30
50 -3 9 -14 17 -24 17 -15 0 -15 -1 2 -14 18 -13 18 -14 -1 -23 -33 -18 -90
19 -78 50 9 24 -19 22 -41 -3 -10 -11 -23 -20 -28 -20 -18 0 -46 31 -40 46 7
18 3 17 -27 -6z m180 -86 c0 -2 -9 -4 -20 -4 -11 0 -20 4 -20 9 0 5 9 7 20 4
11 -3 20 -7 20 -9z m-30 -44 c0 -5 -4 -10 -10 -10 -5 0 -10 5 -10 10 0 6 5 10
10 10 6 0 10 -4 10 -10z"/>
<path d="M600 570 c0 -5 10 -10 23 -10 18 0 19 2 7 10 -19 13 -30 13 -30 0z"/>
<path d="M255 389 c-5 -7 -4 -14 3 -17 7 -2 12 -8 12 -14 0 -7 -5 -7 -13 1 -8
6 -17 8 -21 4 -4 -4 -4 0 -1 9 5 12 2 16 -12 14 -19 -3 -40 -74 -29 -102 9
-25 44 -15 71 20 23 31 24 35 11 66 -9 23 -16 29 -21 19z"/>
</g>
</svg>
