
<svg xmlns="http://www.w3.org/2000/svg"
 width="91.000000pt" height="108.000000pt" viewBox="0 0 91.000000 108.000000"
 preserveAspectRatio="xMidYMid meet">

<g transform="translate(0.000000,108.000000) scale(0.100000,-0.100000)"
fill="#C4BAA6" stroke="none">
<path d="M770 1073 c0 -5 4 -14 9 -21 6 -10 10 -9 14 7 3 14 0 21 -9 21 -8 0
-14 -3 -14 -7z"/>
<path d="M425 973 c-25 -40 -27 -49 -21 -106 4 -34 7 -75 7 -92 -1 -37 26 -78
45 -71 8 3 14 2 14 -3 0 -12 62 -3 102 13 36 16 72 52 63 66 -3 4 0 10 6 12
12 4 -8 58 -22 58 -4 0 -13 16 -19 36 -13 39 -65 104 -84 104 -6 0 -23 6 -37
14 -25 13 -27 11 -54 -31z m20 -192 c-7 -6 -25 48 -30 92 -4 34 -2 30 14 -23
11 -36 18 -67 16 -69z m180 49 c3 -5 1 -10 -4 -10 -6 0 -11 5 -11 10 0 6 2 10
4 10 3 0 8 -4 11 -10z"/>
<path d="M317 710 c-34 -10 -57 -28 -66 -51 -3 -10 -28 -33 -56 -51 -64 -45
-106 -112 -113 -181 -2 -28 -9 -58 -14 -64 -8 -10 -5 -13 10 -13 11 0 37 -7
58 -16 26 -11 58 -15 102 -12 54 3 68 8 85 29 l20 24 -8 -24 c-4 -14 -8 -52
-8 -85 0 -61 11 -95 56 -168 20 -33 24 -35 42 -22 10 8 27 14 37 14 31 0 94
37 123 72 16 18 41 61 58 96 16 34 33 60 38 57 4 -3 18 13 29 36 17 33 20 48
12 78 -5 20 -14 35 -21 33 -8 -2 -10 4 -6 18 4 14 2 20 -8 20 -8 0 -18 7 -21
15 -3 9 -14 15 -23 13 -11 -2 -17 2 -15 10 1 8 -2 11 -7 8 -5 -3 -14 1 -21 9
-7 9 -8 15 -2 15 5 0 13 16 16 35 4 19 11 35 16 35 5 0 43 -11 84 -25 75 -25
111 -30 140 -19 34 13 14 24 -32 18 -37 -5 -64 0 -123 20 -42 14 -88 26 -102
26 -17 0 -27 5 -27 15 0 8 -5 15 -10 15 -6 0 -10 -7 -8 -16 2 -11 -8 -21 -31
-28 -28 -10 -31 -14 -19 -24 12 -10 19 -8 33 8 19 21 75 28 75 10 0 -6 -6 -21
-14 -33 -7 -12 -13 -32 -11 -45 2 -22 1 -22 -19 -3 -15 14 -35 19 -75 19 -34
0 -48 -3 -40 -9 9 -6 4 -8 -16 -6 -26 2 -30 -1 -27 -23 1 -19 0 -22 -8 -10 -8
13 -12 13 -27 -3 -12 -12 -18 -33 -18 -67 0 -32 -3 -43 -9 -33 -13 23 0 83 24
108 12 13 18 28 14 38 -3 10 -1 17 5 17 6 0 11 -5 11 -11 0 -6 9 -4 21 5 12 8
27 12 34 10 6 -3 17 2 24 10 10 11 8 17 -7 28 -10 7 -22 22 -26 33 l-8 20 -8
-20 c-8 -19 -9 -19 -9 1 -1 12 -9 28 -18 35 -11 10 -14 10 -9 2 4 -7 3 -13 -2
-13 -6 0 -12 7 -16 15 -6 17 -17 17 -59 5z m-27 -50 c0 -5 -7 -10 -16 -10 -8
0 -12 5 -9 10 3 6 10 10 16 10 5 0 9 -4 9 -10z m45 -10 c-3 -5 -11 -10 -16
-10 -6 0 -7 5 -4 10 3 6 11 10 16 10 6 0 7 -4 4 -10z m-45 -27 c0 -5 -22 -20
-49 -36 -27 -15 -69 -49 -92 -75 -32 -37 -38 -40 -26 -17 30 59 167 163 167
128z m80 -11 c0 -12 -3 -12 -15 -2 -8 7 -15 13 -15 15 0 1 7 2 15 2 8 0 15 -7
15 -15z m60 14 c0 -3 -4 -8 -10 -11 -5 -3 -10 -1 -10 4 0 6 5 11 10 11 6 0 10
-2 10 -4z m50 -90 c0 -3 -4 -8 -10 -11 -5 -3 -10 -1 -10 4 0 6 5 11 10 11 6 0
10 -2 10 -4z m50 -10 c0 -3 -4 -8 -10 -11 -5 -3 -10 -1 -10 4 0 6 5 11 10 11
6 0 10 -2 10 -4z m37 -28 c-3 -8 -6 -5 -6 6 -1 11 2 17 5 13 3 -3 4 -12 1 -19z
m-131 -7 c-4 -5 0 -12 6 -14 7 -3 3 -6 -9 -6 -16 -1 -21 3 -17 14 4 8 10 15
16 15 5 0 7 -4 4 -9z m184 -7 c0 -8 -5 -12 -10 -9 -6 4 -8 11 -5 16 9 14 15
11 15 -7z m-130 -4 c0 -5 -7 -10 -16 -10 -8 0 -12 5 -9 10 3 6 10 10 16 10 5
0 9 -4 9 -10z m-105 -9 c3 -5 1 -12 -5 -16 -5 -3 -10 1 -10 9 0 18 6 21 15 7z
m150 -1 c-3 -5 -11 -10 -16 -10 -6 0 -7 5 -4 10 3 6 11 10 16 10 6 0 7 -4 4
-10z m135 -4 c0 -3 -4 -8 -10 -11 -5 -3 -10 -1 -10 4 0 6 5 11 10 11 6 0 10
-2 10 -4z m-90 -16 c0 -5 -5 -10 -11 -10 -5 0 -7 5 -4 10 3 6 8 10 11 10 2 0
4 -4 4 -10z m-160 -14 c0 -2 -9 -25 -21 -50 -11 -26 -26 -77 -34 -114 -13 -66
-13 -66 -14 -21 -1 67 37 189 59 189 6 0 10 -2 10 -4z m207 -3 c-11 -10 13
-32 29 -26 10 4 12 0 8 -11 -5 -14 -10 -13 -34 7 -27 21 -30 37 -8 37 6 0 8
-3 5 -7z m83 -13 c0 -5 -5 -10 -11 -10 -5 0 -7 5 -4 10 3 6 8 10 11 10 2 0 4
-4 4 -10z m-20 -69 c0 -6 -4 -13 -10 -16 -5 -3 -10 1 -10 9 0 9 5 16 10 16 6
0 10 -4 10 -9z"/>
</g>
</svg>
