
<svg version="1.0" xmlns="http://www.w3.org/2000/svg"
 width="91.000000pt" height="108.000000pt" viewBox="0 0 91.000000 108.000000"
 preserveAspectRatio="xMidYMid meet">

<g transform="translate(0.000000,108.000000) scale(0.100000,-0.100000)"
fill="#C4BAA6" stroke="none">
<path d="M405 777 c-38 -18 -55 -39 -59 -71 -2 -15 -26 -50 -58 -84 -31 -32
-65 -76 -76 -98 -31 -62 -45 -158 -31 -219 6 -27 12 -66 13 -85 1 -24 6 -34
16 -32 8 2 39 -4 68 -14 115 -36 247 2 351 101 32 30 67 55 78 55 33 0 72 38
84 82 15 58 3 139 -32 204 -34 66 -35 75 -9 99 11 10 20 22 20 27 0 12 -48 10
-72 -3 -16 -9 -30 -6 -71 17 -61 33 -173 43 -222 21z m175 -54 c0 -17 8 -28
28 -36 19 -8 26 -18 24 -31 -2 -10 2 -22 10 -27 10 -7 9 -9 -5 -9 -14 0 -18
-6 -15 -27 2 -23 8 -29 36 -31 17 -2 32 -4 32 -5 0 -1 4 -18 10 -36 5 -19 6
-30 1 -25 -5 5 -11 18 -13 29 -2 12 -13 21 -28 23 -14 2 -30 8 -36 13 -15 12
-24 59 -13 59 5 0 9 12 9 26 0 18 -6 28 -20 31 -11 3 -23 17 -26 32 -4 14 -11
32 -17 39 -7 9 -6 11 7 6 9 -3 16 -17 16 -31z m-64 -2 c4 -16 14 -31 24 -34
17 -4 35 -67 18 -67 -4 0 -9 -12 -9 -27 l-1 -28 -7 30 c-4 17 -3 32 1 33 17 8
8 50 -12 55 -11 3 -20 14 -20 24 0 10 -5 24 -12 31 -9 9 -9 12 0 12 7 0 15
-13 18 -29z m-116 -32 c-9 -16 -7 -19 10 -19 11 0 20 -4 20 -9 0 -4 -12 -6
-26 -3 -17 3 -23 9 -20 19 3 8 6 21 6 29 0 9 5 12 10 9 7 -4 7 -13 0 -26z m71
-9 c14 0 19 -7 19 -29 0 -16 6 -32 13 -34 7 -3 5 -6 -5 -6 -21 -1 -25 -37 -5
-44 7 -3 5 -6 -5 -6 -13 -1 -18 7 -18 23 0 19 -6 25 -27 28 -14 2 -28 10 -31
18 -4 12 -2 13 9 3 7 -7 23 -13 36 -13 18 0 23 6 23 25 0 18 -5 25 -20 25 -15
0 -20 6 -19 28 2 23 2 24 6 5 3 -15 12 -23 24 -23z m231 -82 c2 -17 11 -24 31
-26 15 -2 27 -7 27 -11 0 -4 -14 -6 -30 -3 -21 3 -32 11 -36 28 -3 12 -13 25
-22 27 -12 3 -11 5 5 6 15 1 23 -6 25 -21z m-187 -108 c49 -49 87 -90 85 -90
-3 0 -46 41 -95 90 -49 50 -87 90 -85 90 3 0 46 -40 95 -90z m105 35 c4 -25
10 -30 38 -33 22 -2 32 -8 32 -20 0 -11 -3 -13 -8 -6 -4 6 -21 14 -37 17 -27
5 -31 3 -33 -19 -1 -20 4 -26 28 -31 17 -3 33 -10 37 -16 4 -7 0 -8 -11 -4
-10 4 -29 10 -42 13 -17 4 -24 13 -24 30 0 20 -5 24 -30 24 -27 0 -30 3 -30
34 0 25 -5 36 -17 39 -10 2 7 3 37 3 53 -1 55 -2 60 -31z m-364 -97 c-14 -148
-26 -169 -55 -94 -12 32 -12 46 -2 84 12 47 36 82 54 82 6 0 7 -28 3 -72z
m484 -8 c0 -4 -11 -5 -25 -2 -14 2 -25 8 -25 12 0 4 11 5 25 2 14 -2 25 -8 25
-12z m-30 -54 c0 -2 -9 -2 -20 1 -11 3 -20 9 -20 15 0 5 9 4 20 -2 11 -6 20
-12 20 -14z"/>
<path d="M550 520 c0 -27 3 -30 30 -30 27 0 30 3 30 30 0 27 -3 30 -30 30 -27
0 -30 -3 -30 -30z"/>
</g>
</svg>
