
<svg  xmlns="http://www.w3.org/2000/svg"
 width="186.000000pt" height="225.000000pt" viewBox="0 0 186.000000 225.000000"
 preserveAspectRatio="xMidYMid meet">

<g transform="translate(0.000000,225.000000) scale(0.100000,-0.100000)"
fill="#C4BAA6" stroke="none">
<path d="M672 2078 c-15 -15 28 -68 91 -114 30 -21 53 -47 59 -67 6 -18 38
-84 71 -147 108 -207 115 -224 131 -302 20 -96 21 -246 2 -319 -8 -30 -29 -86
-47 -124 -47 -102 -59 -157 -59 -277 0 -104 -1 -108 -29 -140 -16 -18 -55 -49
-87 -68 -52 -31 -66 -35 -130 -35 -71 0 -74 1 -266 99 -158 80 -205 100 -249
104 -44 3 -59 0 -81 -18 -38 -29 -53 -84 -39 -137 28 -102 120 -187 264 -243
242 -95 458 -75 572 52 l43 48 7 -41 c4 -23 20 -79 35 -124 25 -75 26 -84 13
-109 -11 -21 -12 -34 -5 -50 9 -20 10 -20 21 8 l12 30 20 -33 c16 -26 24 -31
42 -25 12 4 29 7 37 8 8 1 19 10 23 20 6 15 0 26 -22 47 -42 38 -47 70 -28
166 25 118 69 255 79 245 5 -5 13 -49 18 -98 4 -49 11 -100 13 -114 3 -14 8
-37 12 -52 6 -32 51 -59 138 -81 50 -13 58 -13 65 0 7 12 14 10 39 -11 33 -28
57 -26 74 5 14 27 -41 59 -101 59 -54 0 -120 17 -120 31 0 5 14 37 31 71 41
81 47 153 24 272 -16 83 -16 95 -2 131 8 22 27 72 42 110 54 142 68 302 44
513 -11 93 -10 102 11 161 16 43 37 75 67 104 28 27 61 78 96 147 l52 105 43
-3 c50 -4 56 13 12 32 l-30 12 30 29 c16 16 30 32 30 37 0 15 -27 8 -55 -14
l-28 -22 6 32 c9 43 -9 41 -30 -3 l-16 -35 -19 30 c-25 42 -31 37 -23 -15 6
-41 3 -49 -24 -83 -42 -54 -121 -95 -186 -96 -68 -1 -98 20 -120 81 -53 144
-99 222 -132 223 -6 0 -32 -26 -56 -58 -25 -32 -52 -64 -61 -71 -9 -8 -21 -34
-28 -58 l-11 -44 -43 42 c-23 23 -45 53 -49 66 -3 15 -12 23 -22 21 -11 -2
-19 7 -25 30 -9 32 -28 44 -28 17 0 -8 -7 -15 -15 -15 -8 0 -15 6 -15 13 0 35
-65 68 -88 45z"/>
</g>
</svg>
