<?xml version="1.0" standalone="no"?>
<!DOCTYPE svg PUBLIC "-//W3C//DTD SVG 20010904//EN"
 "http://www.w3.org/TR/2001/REC-SVG-20010904/DTD/svg10.dtd">
<svg version="1.0" xmlns="http://www.w3.org/2000/svg"
 width="794.000000pt" height="431.000000pt" viewBox="0 0 794.000000 431.000000"
 preserveAspectRatio="xMidYMid meet">

<g transform="translate(0.000000,431.000000) scale(0.100000,-0.100000)"
fill="black" stroke="">
<path d="M584 3975 c-201 -44 -363 -231 -324 -374 l11 -42 39 35 c50 45 82 61
154 76 153 31 280 -38 360 -197 47 -95 59 -170 53 -348 -6 -175 -19 -247 -100
-555 -76 -290 -91 -391 -91 -640 -1 -237 6 -288 69 -470 36 -104 83 -215 89
-209 2 2 0 29 -5 59 -15 98 -29 333 -24 400 28 342 61 452 260 849 40 80 89
188 109 239 103 257 131 546 74 762 -50 193 -192 360 -352 413 -61 21 -232 22
-322 2z"/>
<path d="M1438 3188 c-19 -37 -23 -58 -23 -148 0 -88 4 -112 22 -145 39 -74
43 -76 210 -78 138 -2 152 -4 198 -28 62 -31 96 -83 128 -199 40 -140 40 -148
11 -175 -48 -45 -108 -65 -191 -65 -112 0 -182 23 -248 81 -88 77 -135 76
-135 -2 0 -134 304 -222 507 -147 67 25 133 88 133 127 0 16 -9 71 -19 122
-36 173 -70 243 -145 298 -68 50 -91 83 -120 168 -34 98 -37 103 -52 103 -8 0
-24 -15 -35 -32 -17 -28 -20 -44 -15 -105 3 -56 1 -73 -9 -73 -26 0 -71 66
-89 130 -49 178 -60 205 -83 208 -17 3 -27 -6 -45 -40z"/>
<path d="M3940 2387 c0 -33 2 -34 53 -46 30 -6 64 -19 76 -28 51 -35 51 -30
51 -790 0 -685 -1 -709 -20 -740 -22 -37 -61 -60 -119 -69 -39 -6 -41 -9 -41
-40 l0 -34 370 0 370 0 0 34 c0 31 -2 34 -41 40 -55 9 -95 31 -116 63 -17 25
-18 84 -23 793 -5 706 -6 767 -23 797 -9 18 -26 37 -36 43 -12 6 -114 10 -260
10 l-241 0 0 -33z"/>
<path d="M4767 2413 c-4 -3 -7 -19 -7 -34 0 -25 4 -28 45 -35 25 -3 60 -16 78
-28 64 -43 62 -16 65 -736 2 -360 0 -683 -3 -718 -9 -85 -42 -124 -123 -144
-53 -13 -57 -16 -57 -43 l0 -30 370 0 370 0 0 29 c0 27 -4 30 -53 41 -91 21
-132 79 -132 188 0 45 5 55 73 142 39 52 75 94 79 95 5 0 51 -86 104 -191 111
-224 135 -262 179 -289 31 -19 47 -20 266 -18 l234 3 0 30 c0 28 -3 30 -47 38
-28 6 -57 19 -70 32 -13 13 -109 183 -215 377 -142 262 -189 357 -182 368 6 8
49 65 98 125 99 124 151 164 232 174 58 7 82 29 60 55 -20 24 -362 24 -382 0
-19 -24 1 -48 46 -54 47 -6 65 -30 44 -58 -32 -47 -503 -643 -511 -648 -4 -3
-8 271 -8 608 0 389 -4 627 -10 650 -6 20 -22 46 -37 58 -24 19 -39 20 -263
20 -130 0 -240 -3 -243 -7z"/>
<path d="M1695 1979 c-68 -8 -131 -29 -191 -64 -57 -33 -153 -139 -191 -210
-32 -61 -77 -184 -70 -191 2 -3 17 14 33 37 15 22 53 60 84 84 116 89 222 125
372 125 237 0 360 -113 390 -358 14 -106 -7 -252 -47 -336 -54 -114 -152 -189
-291 -222 -147 -34 -396 -3 -605 76 -57 21 -104 38 -106 36 -9 -9 50 -99 100
-153 75 -79 184 -136 308 -160 106 -20 334 -13 529 17 74 11 213 25 308 32
l172 11 -6 36 c-10 54 -36 102 -67 125 -23 17 -42 21 -107 20 l-79 -2 44 57
c101 129 141 267 132 455 -11 259 -111 430 -302 521 -113 53 -281 80 -410 64z"/>
<path d="M3100 1851 c-155 -34 -236 -77 -320 -167 -61 -66 -83 -104 -116 -199
-35 -104 -44 -290 -20 -405 36 -172 138 -309 279 -376 108 -51 166 -64 307
-71 156 -6 238 9 365 71 139 68 287 213 270 266 -11 33 -41 23 -85 -29 -149
-177 -405 -270 -589 -215 -66 19 -142 87 -160 141 -13 43 -36 346 -27 368 5
13 71 15 472 15 l467 0 -7 70 c-28 278 -171 455 -423 521 -114 30 -302 35
-413 10z m306 -76 c54 -22 99 -68 125 -129 18 -42 23 -75 27 -188 l5 -138
-283 0 -282 0 7 103 c16 240 65 335 191 366 52 14 162 6 210 -14z"/>
<path d="M6660 1851 c-47 -10 -118 -33 -157 -51 -66 -29 -73 -36 -73 -61 0
-38 12 -43 52 -20 52 31 176 69 250 76 139 15 280 -34 334 -114 14 -21 32 -63
40 -92 13 -52 19 -159 9 -159 -3 0 -34 10 -68 22 -55 20 -82 23 -232 23 -132
0 -185 -4 -235 -18 -206 -56 -338 -182 -356 -338 -8 -71 10 -178 41 -238 44
-86 134 -158 253 -201 188 -69 420 -67 560 4 l48 24 31 -34 30 -34 247 0 247
0 -3 33 c-2 26 -8 33 -28 35 -58 7 -109 34 -132 70 -22 36 -23 47 -29 342 -5
226 -10 318 -21 355 -36 120 -114 227 -213 290 -145 92 -395 128 -595 86z
m385 -472 l70 -24 3 -287 2 -286 -33 -21 c-56 -34 -117 -52 -203 -58 -152 -11
-245 32 -292 135 -22 48 -26 74 -30 182 -5 153 7 225 51 282 68 88 123 110
262 104 69 -3 121 -11 170 -27z"/>
</g>
</svg>
